<svg width="475" height="120" viewBox="0 0 475 120" fill="none" xmlns="http://www.w3.org/2000/svg">
<path fill-rule="evenodd" clip-rule="evenodd" d="M274.174 56.1034L263.295 56.2227C262.425 56.3847 262.881 56.1631 262.425 56.6064C261.901 57.3354 261.628 95.1402 262.306 97.9879C263.708 98.5719 272.337 98.3716 274.443 98.2863C275.035 91.7212 273.829 83.421 274.677 77.1202C276.429 64.1009 296.052 62.4724 296.444 76.8943C296.636 83.8218 296.155 91.248 296.517 98.0902L309.685 97.9708C309.997 94.7096 309.745 90.5148 309.762 87.1384C309.779 84.4697 309.451 78.6933 309.916 76.5149C312.763 63.2227 332.975 63.3761 333.392 76.8815C333.524 81.1957 332.992 95.6091 333.405 98.2266H346.058C346.655 95.8095 346.271 78.4077 345.938 75.253C344.395 60.6606 332.275 53.1107 319.508 55.4C310.24 57.0626 307.503 62.9967 305.729 64.5996C304.647 63.5595 304.007 62.4084 303.044 61.4365C296.274 54.6156 285.829 52.7611 277.61 58.2903C276.591 58.9767 275.347 59.9444 274.012 60.1277L274.166 56.1076L274.174 56.1034Z" fill="#F5F5F5" stroke="#F5F5F5" stroke-width="0.754561" stroke-miterlimit="22.9256"/>
<path fill-rule="evenodd" clip-rule="evenodd" d="M420.597 55.2892C421.058 56.3336 421.122 56.7002 421.672 57.6978L428.701 71.4845C431.46 76.8347 433.851 82.1294 436.55 87.2834C437.948 89.9563 439.393 92.6506 440.719 95.315C441.623 97.1396 442.322 97.7236 441.546 99.9703C438.451 108.931 432.137 110.202 422.311 106.881C421.569 108.305 421.424 110.909 421.002 112.704C420.636 114.269 419.856 116.941 419.813 118.438C429.209 120.655 437.117 120.727 444.01 115.56C450.362 110.798 451.615 105.137 455.623 97.0799C457.758 92.7828 473.724 58.009 474.482 55.5236L461.348 55.4853L454.924 70.7896C453.755 73.2324 452.664 75.7518 451.551 78.3054C450.908 79.7847 449.126 84.4314 448.324 85.4205L436.064 59.2922C435.77 58.6058 435.548 58.1241 435.164 57.344C434.555 56.1077 434.589 56.1205 433.975 55.7794C432.999 55.2977 422.661 55.319 420.602 55.2849L420.597 55.2892Z" fill="#F5F5F5"/>
<path fill-rule="evenodd" clip-rule="evenodd" d="M176 70.8109C177.177 68.445 177.586 67.4602 179.624 66.1983C186.112 62.1825 193.743 65.35 195.713 71.1051C192.336 71.3268 176.942 71.4717 176 70.8109ZM196.067 86.8486C189.51 93.938 176.201 90.3656 174.142 77.4187L209.806 77.4443C210.616 71.7573 206.507 63.9218 203.945 61.023C195.546 51.5249 181.257 50.1991 172.074 57.0626C154.988 69.839 161.173 92.1177 176.167 99.0281C193.854 107.183 206.379 92.9916 206.277 90.0117C204.712 88.9247 198.352 86.985 196.071 86.84L196.067 86.8486Z" fill="#F5F5F5"/>
<path fill-rule="evenodd" clip-rule="evenodd" d="M397.956 55.3914C397.696 51.6612 398.643 47.1211 400.582 45.2539C409.177 36.9707 416.432 47.6454 417.618 47.9439C419.161 48.3275 425.854 46.0553 427.022 45.2198C426.54 43.8044 424.08 39.7375 423.211 38.5481C418.658 32.324 409.991 28.6365 401.802 30.4696C395.808 31.8082 392.41 35.3209 389.771 38.9147C386.548 43.2971 385.934 48.8178 385.751 55.5193L379.165 55.515C379.033 57.6679 378.747 64.4376 379.224 66.2068L385.555 66.2452L385.76 98.2223L398.617 98.2266L398.638 66.0618L413.158 65.9936L413.103 55.4895L397.965 55.3872L397.956 55.3914Z" fill="#F5F5F5"/>
<path fill-rule="evenodd" clip-rule="evenodd" d="M117.426 65.0088L125.986 65.1452C126.711 70.4698 125.773 76.2079 126.805 81.8564C130.599 102.575 154.472 100.78 158.795 96.9604C158.223 95.1657 157.439 94.2193 156.612 92.659C155.845 91.2096 155.192 89.6834 154.566 88.3959C151.296 88.7157 149.015 90.0457 145.43 88.511C138.869 85.7017 138.835 80.2194 138.856 74.9801L138.937 66.0874C139.095 65.303 138.899 65.8486 139.214 65.2646L156.186 65.0344L156.019 54.5686C152.553 54.6709 142.019 55.0972 139.21 54.5004L139.125 41.95L126.638 42.0224L126.839 54.5771L117.682 54.6027L117.413 65.0088H117.426Z" fill="#F5F5F5"/>
<path fill-rule="evenodd" clip-rule="evenodd" d="M357.3 55.3147C357.108 64.5485 356.958 73.7268 357.044 82.9819C357.082 87.3814 356.877 92.7955 357.176 97.0671C357.291 98.6828 357.444 98.3161 359.226 98.3076C361.528 98.2991 367.97 98.4696 369.3 98.1712L369.373 55.4511L357.295 55.319L357.3 55.3147Z" fill="#F5F5F5"/>
<path fill-rule="evenodd" clip-rule="evenodd" d="M370.221 41.7027C373.188 33.0956 358.595 29.6894 356.455 37.947C355.398 42.0267 358.651 46.1107 361.631 46.6863C366.017 47.5389 369.206 44.6528 370.221 41.7027Z" fill="#F5F5F5"/>
<path d="M232.763 90.3611C237.051 90.3611 240.668 88.5848 243.613 85.0321C246.589 81.4794 248.077 77.0625 248.077 71.7815C248.077 67.3326 246.909 63.7319 244.573 60.9794C242.268 58.2268 239.244 56.8506 235.499 56.8506C230.634 56.8506 226.649 58.5789 223.545 62.0356C220.44 65.4923 218.888 69.8931 218.888 75.2382C218.888 79.751 220.168 83.3997 222.729 86.1843C225.321 88.9688 228.666 90.3611 232.763 90.3611ZM250.958 51.6656H258.496L252.734 95.5941H245.053L246.109 89.0168C243.997 91.8654 241.628 93.9778 239.004 95.3541C236.411 96.6983 233.451 97.3705 230.122 97.3705C224.489 97.3705 219.912 95.3221 216.391 91.2253C212.871 87.1285 211.11 81.7994 211.11 75.2382C211.11 67.9727 213.255 61.9716 217.544 57.2347C221.832 52.4657 227.225 50.0813 233.723 50.0813C237.627 50.0813 240.908 50.9454 243.565 52.6738C246.221 54.4021 248.286 57.0106 249.758 60.4993L250.958 51.6656Z" fill="#3595C8"/>
<path fill-rule="evenodd" clip-rule="evenodd" d="M53.6719 89.952C48.0105 89.952 43.4192 85.3607 43.4192 79.6994V79.0173C43.4192 73.3559 48.0105 68.7646 53.6719 68.7646H73.2819V44.478C73.2819 41.1059 70.5493 38.3733 67.1772 38.3733H38.9473V57.9833C38.9473 63.6447 34.356 68.236 28.6946 68.236H28.0125C22.3512 68.236 17.7599 63.6447 17.7599 57.9833V38.3733H6.10897C2.73689 38.3733 0.00427246 41.1059 0.00427246 44.478V105.546C0.00427246 108.918 2.73689 111.651 6.10897 111.651V92.0409C6.10897 86.3796 10.7003 81.7882 16.3616 81.7882H17.0437C22.705 81.7882 27.2964 86.3796 27.2964 92.0409V111.651H67.1772C70.5493 111.651 73.2819 108.918 73.2819 105.546V89.952H53.6719Z" fill="url(#paint0_linear_29_11)"/>
<defs>
<linearGradient id="paint0_linear_29_11" x1="9.40519e-06" y1="75.0143" x2="73.2777" y2="75.0143" gradientUnits="userSpaceOnUse">
<stop stop-color="#3595C8"/>
<stop offset="1" stop-color="#48B2DC"/>
</linearGradient>
</defs>
</svg>
