<?xml version="1.0" encoding="UTF-8"?>
<!DOCTYPE svg PUBLIC "-//W3C//DTD SVG 1.1//EN" "http://www.w3.org/Graphics/SVG/1.1/DTD/svg11.dtd">
<!-- Creator: CorelDRAW -->
<svg xmlns="http://www.w3.org/2000/svg" xml:space="preserve" width="253.159mm" height="57.058mm" version="1.1" style="shape-rendering:geometricPrecision; text-rendering:geometricPrecision; image-rendering:optimizeQuality; fill-rule:evenodd; clip-rule:evenodd"
viewBox="0 0 24673.11 5560.92"
 xmlns:xlink="http://www.w3.org/1999/xlink"
 xmlns:xodm="http://www.corel.com/coreldraw/odm/2003">
 <defs>
  <style type="text/css">
   <![CDATA[
    .fil0 {fill:black}
    .fil3 {fill:black;fill-rule:nonzero}
    .fil2 {fill:url(#id0)}
    .fil1 {fill:url(#id1);fill-rule:nonzero}
   ]]>
  </style>
  <linearGradient id="id0" gradientUnits="userSpaceOnUse" x1="-0" y1="2340.72" x2="3810.6" y2="2340.72">
   <stop offset="0" style="stop-opacity:1; stop-color:#3595C8"/>
   <stop offset="1" style="stop-opacity:1; stop-color:#48B2DC"/>
  </linearGradient>
  <linearGradient id="id1" gradientUnits="userSpaceOnUse" xlink:href="#id0" x1="11070.5" y1="2448.6" x2="13371.3" y2="2448.6">
  </linearGradient>
 </defs>
 <g id="Layer_x0020_1">
  <metadata id="CorelCorpID_0Corel-Layer"/>
  <g id="_2160873647232">
   <g>
    <path class="fil0" d="M14257.21 1357.43l-565.63 6.29c-45.2,8.35 -21.5,-3.15 -45.14,20.03 -27.3,37.81 -41.43,2003.8 -6.3,2151.82 73.02,30.36 521.67,20.02 631.22,15.45 30.82,-341.39 -32,-772.97 12.1,-1100.63 91.14,-677.03 1111.44,-761.72 1131.96,-11.77 9.86,360.27 -15,746.45 3.71,1102.3l684.88 -6.31c16.3,-169.65 3.09,-387.63 4.09,-563.27 0.78,-138.79 -16.2,-439.2 8.07,-552.41 148.09,-691.18 1199.08,-683.22 1220.91,19.02 6.98,224.34 -20.75,973.95 0.73,1109.93l657.95 -0.1c30.95,-125.72 11.17,-1030.57 -6.21,-1194.66 -80.35,-758.81 -710.49,-1151.4 -1374.41,-1032.39 -481.85,86.36 -624.3,395.1 -716.55,478.37 -56.37,-54.14 -89.57,-113.89 -139.72,-164.44 -351.96,-354.78 -895.23,-451.23 -1322.49,-163.66 -53.07,35.69 -117.63,86.04 -187.09,95.57l7.9 -209.15z"/>
    <path class="fil0" d="M21871.3 1315.02c23.86,54.25 27.26,73.49 55.87,125.18l365.53 716.99c143.37,278.15 267.9,553.63 408.01,821.49 72.74,139.09 147.92,279.02 216.7,417.62 47.06,94.87 83.43,125.2 43.02,242.07 -161.04,465.89 -489.2,532.11 -1000.18,359.37 -38.57,74.06 -46.21,209.45 -68,302.77 -19,81.37 -59.62,220.44 -61.88,298.25 488.54,115.36 899.82,119.1 1258.18,-149.59 330.34,-247.68 395.57,-541.93 603.89,-960.91 111.06,-223.39 941.35,-2031.72 980.66,-2160.96l-682.93 -2.1 -334.12 795.86c-60.83,127.06 -117.45,258.12 -175.31,390.76 -33.51,76.83 -126.22,318.46 -167.89,370.02l-637.51 -1358.58c-15.2,-35.59 -26.72,-60.69 -46.77,-101.22 -31.8,-64.34 -29.95,-63.69 -61.81,-81.32 -50.83,-25.16 -588.46,-23.9 -695.47,-25.69z"/>
    <path class="fil0" d="M9152.07 2122.24c61.22,-123.13 82.38,-174.25 188.31,-239.85 337.32,-208.89 734.17,-44.15 836.68,255.22 -175.6,11.5 -975.96,19 -1025,-15.37zm1043.55 833.99c-340.94,368.63 -1032.94,182.84 -1140.19,-490.29l1854.61 1.37c42.13,-295.76 -171.56,-703.07 -304.85,-853.85 -436.67,-493.94 -1179.82,-562.9 -1657.31,-205.88 -888.4,664.3 -566.81,1822.83 212.76,2182.27 919.76,424.09 1571.08,-313.97 1565.68,-468.76 -81.41,-56.43 -412.2,-157.45 -530.69,-164.87z"/>
    <path class="fil0" d="M20694.06 1320.35c-13.43,-193.89 35.71,-429.97 136.53,-527.16 446.91,-430.84 824.29,124.47 885.93,139.82 80.15,19.95 428.4,-98.29 489.09,-141.55 -25.14,-73.54 -152.98,-285.11 -198.15,-346.82 -236.77,-323.68 -687.37,-515.36 -1113.29,-420.18 -311.59,69.64 -488.3,252.37 -625.62,439.17 -167.55,227.88 -199.45,514.92 -209.14,863.43l-342.6 -0.21c-6.92,112 -21.77,464.05 3.07,556.08l329.1 2.01 10.54 1662.73 668.6 0.23 1.06 -1672.54 755 -3.44 -2.83 -546.22 -787.29 -5.34z"/>
    <path class="fil0" d="M6106.18 1820.37l445.17 7.06c37.78,276.94 -11.1,575.37 42.65,868.93 197.29,1077.36 1438.64,984.07 1663.6,785.52 -29.79,-93.44 -70.5,-142.43 -113.44,-223.63 -39.89,-75.43 -73.72,-154.82 -106.37,-221.67 -170,16.54 -288.57,85.84 -475.08,5.97 -341.07,-146.05 -342.85,-431.07 -341.75,-703.55l4.27 -462.41c8.2,-40.71 -2.11,-12.45 14.31,-42.69l882.52 -11.95 -8.67 -544.15c-180.13,5.36 -727.99,27.44 -874,-3.64l-4.37 -652.72 -649.36 3.71 10.46 652.8 -476.08 1.28 -13.85 541.14z"/>
    <path class="fil0" d="M18579.92 1316.26c-9.96,480.26 -17.65,957.36 -13.24,1438.76 2.11,228.79 -8.59,510.41 6.96,732.52 5.9,83.96 13.91,64.86 106.66,64.42 119.67,-0.53 454.66,8.45 523.74,-7.19l3.83 -2221.52 -627.94 -6.98z"/>
    <path class="fil0" d="M19251.67 608.43c154.4,-447.6 -604.45,-624.71 -715.81,-195.38 -55.02,212.12 114.15,424.46 269.04,454.49 228.16,44.25 393.88,-105.83 446.77,-259.11z"/>
    <path class="fil1" d="M12992.91 2463.94c0,-258.18 -70.71,-466.15 -211.3,-622.94 -140.64,-157.6 -323.82,-236.03 -550.52,-236.03 -234.31,0 -417.54,72.42 -548.75,217.31 -132.07,144.88 -197.72,346.84 -197.72,606.73 0,276.1 66.46,489.12 198.58,638.24 132.07,149.97 320.4,224.97 563.24,224.97 232.65,0 415.88,-72.42 547.95,-218.16 132.07,-145.7 198.53,-349.38 198.53,-610.12zm378.38 -1165.74l0 2285.46 -378.38 0 0 -414.17c-91.15,166.18 -208.77,293.15 -351.08,380.1 -142.31,87.76 -301.63,131.21 -478.06,131.21 -327.22,0 -592.21,-112.48 -792.45,-338.32 -200.29,-225.79 -300.82,-524.03 -300.82,-895.6 0,-375.77 97.15,-674.88 292.29,-897.27 194.29,-222.44 455.03,-333.22 781.4,-333.22 190.86,0 357.04,42.6 497.64,128.69 140.6,86.05 254.79,214.73 340.89,384.29l0 -431.17 388.58 0z"/>
    <path class="fil2" d="M2790.94 3117.54c-294.41,0 -533.07,-238.67 -533.07,-533.08l0 -35.5c0,-294.42 238.66,-533.08 533.09,-533.08l1019.65 0 0 -1262.92c0,-175.37 -142.17,-317.55 -317.54,-317.55l-1467.96 0 0 1019.65c0,294.42 -238.66,533.08 -533.08,533.08l-35.5 0c-294.41,0 -533.09,-238.66 -533.09,-533.08l0 -1019.65 -605.88 0c-175.38,0 -317.55,142.18 -317.55,317.55l0 3175.51c0,175.38 142.17,317.54 317.55,317.54l0 -1019.64c0,-294.43 238.66,-533.1 533.1,-533.1l35.48 0c294.43,0 533.1,238.67 533.1,533.1l0 1019.64 2073.84 0c175.37,0 317.54,-142.16 317.54,-317.54l0 -810.93 -1019.66 0z"/>
   </g>
   <path class="fil3" d="M8098.56 4506.64l373.45 0 0 43.7 -40.96 0c-34.29,0 -56.53,2.79 -66.76,8.1 -10.24,5.32 -15.39,12.82 -15.39,22.45 0,10.03 2.57,19.11 8.1,27l216.1 335.88 156.2 -286.25c7.11,-12.6 10.46,-26.57 10.46,-41.57 0,-19.88 -6.52,-35.87 -19.5,-47.65 -13.2,-12.05 -31.71,-17.96 -55.96,-17.96l-39.81 0 0 -43.7 325.07 0 0 43.7c-37.44,0 -66.8,6.52 -88.48,19.5 -21.47,13.2 -42.34,37.62 -62.43,73.88l-196.61 360.13 0 269.66c0,14.36 3.95,24.42 12.05,30.73 11.23,8.1 27.77,12 49.62,12l73.11 0 0 43.75 -390.04 0 0 -43.75 76.41 0c20.7,0 35.48,-3.73 44.52,-11.23 9.26,-7.46 13.8,-17.91 13.8,-31.5l0 -262.21 -265.34 -411.89c-11.62,-17.74 -25.03,-30.13 -40.37,-37.24 -15.38,-7.07 -41.18,-11.01 -77.22,-11.83l0 -43.7zm1002.65 296.66c72.89,0 133.95,26.18 183.4,78.59 49.45,52.4 74.27,121.52 74.27,207.06 0,59.27 -11.06,109.7 -33.3,151.27 -22.07,41.78 -53.56,74.65 -94.57,98.9 -41.14,24.21 -85.28,36.25 -132.55,36.25 -70.14,0 -129.62,-26.61 -178.3,-79.62 -48.63,-52.96 -73.06,-121.74 -73.06,-206.25 0,-84.67 24.42,-153.62 73.27,-206.63 49.07,-53.01 109.31,-79.58 180.84,-79.58zm0 41.35c-43.16,0 -78.42,19.49 -106.19,58.32 -27.77,38.99 -41.57,100.44 -41.57,184.39 0,85.49 13.8,147.93 41.4,187.31 27.38,39.6 62.82,59.3 106.36,59.3 45.12,0 81.55,-19.71 109.53,-59.3 27.77,-39.38 41.73,-104 41.73,-193.61 0,-83.35 -13.75,-143.42 -41.34,-180.66 -27.39,-37.24 -64.02,-55.75 -109.92,-55.75zm520.05 -35.44l0 358.92c0,43.93 11.01,77.78 33.29,101.65 22.07,23.82 50.6,35.82 85.7,35.82 42.94,0 79.75,-17.52 109.92,-52.4 30.13,-34.83 45.3,-78.59 45.3,-131l0 -203.07c0,-18.52 -6.69,-32.91 -20.1,-43.16 -13.21,-10.24 -38.78,-15.94 -76.84,-17.14l0 -40.19 190.3 -9.42 0 443.6c0,20.31 5.7,36.03 17.14,47.09 11.62,10.84 27.6,16.32 48.25,16.32l33.9 0 0 39.03 -180.84 3.52 -11.82 -105.16c-32.31,38.01 -64.79,66.55 -97.49,85.87 -32.74,19.11 -65.83,28.76 -99.28,28.76 -48.86,0 -89.87,-16.33 -122.95,-49.07 -33.47,-32.48 -50.22,-87.46 -50.22,-164.85l0 -235.43c0,-20.66 -8.27,-36.65 -24.81,-47.27 -11.44,-7.88 -35.1,-12 -70.91,-12.82l0 -40.19 191.46 -9.42zm528.14 9.42l195.02 -9.42 0 218.24c20.88,-71.91 45.89,-126.08 75.04,-162.89 29.36,-36.85 65.4,-55.36 108.54,-55.36 29.36,0 52.79,8.87 70.32,26.78 17.53,17.74 26.23,41.78 26.23,71.52 0,24.21 -5.91,43.11 -17.56,56.52 -11.79,13.42 -26.4,20.1 -44.1,20.1 -17.35,0 -31.32,-5.69 -42,-17.35 -10.41,-11.4 -15.72,-26.96 -15.72,-46.66 0,-12.6 2.95,-24.43 9.03,-35.66 5.75,-10.07 8.66,-15.98 8.66,-17.9 0,-5.75 -3.73,-8.7 -11.01,-8.7 -15.77,0 -33.47,9.26 -53.56,27.77 -27.6,25.84 -48.86,61.28 -63.86,106.19 -23.05,70.14 -34.67,126.07 -34.67,168.01l0 116.05c0,12.98 4.54,23.06 13.8,29.95 9.26,6.9 25.19,10.42 47.48,10.42l68.73 0 0 43.75 -336.85 0 0 -43.75 53.78 0c18.13,0 31.93,-3.52 41.18,-10.63 9.26,-7.07 13.8,-15.77 13.8,-25.79l0 -344.14c0,-26.19 -5.53,-45.3 -16.75,-57.51 -11.23,-12.04 -27.17,-18.13 -48.08,-18.13l-47.44 0 0 -41.39zm1005.44 -219.83l38.99 0 0 219.83 174.92 0 0 53.22 -174.92 0 0 347.65c0,30.17 7.07,53.22 21.08,69.17 13.98,15.93 31.88,24.03 53.56,24.03 25.8,0 47.87,-12.21 65.99,-36.64 18.34,-24.26 28.98,-64.45 31.93,-120.59l38.99 0c-2.36,72.12 -18.72,125.52 -49.06,160.35 -30.34,34.88 -69.72,52.41 -118.19,52.41 -44.52,0 -79.36,-12.22 -104.59,-36.65 -25.2,-24.42 -37.8,-56.52 -37.8,-96.33l0 -363.42 -94.58 0 0 -40.41c43.32,-7.29 76.45,-25.2 99.07,-53.56 33.68,-42.55 51.81,-102.25 54.6,-179.08zm887.24 700.89l20.65 32.31c-28.36,28.97 -59.69,43.36 -94.14,43.36 -26.4,0 -48.47,-7.1 -66.59,-21.3 -17.91,-14.36 -33.68,-39.21 -47.27,-75.04 -36.47,38.4 -68.35,64.02 -95.94,77 -27.6,12.82 -60.68,19.33 -99.29,19.33 -55.14,0 -97.1,-12.04 -125.69,-35.87 -28.75,-23.82 -43.11,-54.37 -43.11,-91.61 0,-56.14 32.87,-102.8 98.47,-140.04 65.61,-37.03 152.86,-61.88 261.99,-74.09l0 -81.33c0,-28.97 -11.61,-53.78 -35.05,-74.48 -23.44,-20.69 -53.18,-30.93 -89.26,-30.93 -33.29,0 -62.05,6.9 -86.26,20.91 -17.13,10.24 -25.8,20.49 -25.8,30.51 0,5.74 4.72,14.78 13.98,27.21 11.23,15.34 16.75,28.93 16.75,40.96 0,17.32 -5.53,31.5 -16.75,42.34 -11.01,11.06 -25.63,16.54 -43.54,16.54 -19.29,0 -35.27,-6.47 -48.09,-19.67 -12.77,-13.02 -19.28,-29.95 -19.28,-50.26 0,-38.19 21.47,-73.28 64.4,-104.77 42.94,-31.71 99.29,-47.48 168.84,-47.48 64.4,0 113.46,13.8 147.32,41.57 33.9,27.98 50.83,62.04 50.83,102.03l0 295.07c0,26.01 4.15,45.34 12.64,57.55 8.44,12.82 19.49,19.11 32.86,19.11 15,0 30.72,-6.3 47.31,-18.94zm-190.91 -228.11c-97.1,13.42 -165.88,35.45 -206.46,65.79 -30.13,23.26 -45.29,55.96 -45.29,98.3 0,29.74 7.88,52.79 23.44,69.55 15.77,16.75 36.26,25.19 61.45,25.19 45.12,0 84.12,-17.31 117.25,-51.81 33.08,-34.45 49.62,-77.6 49.62,-129.58l0 -77.43zm342.95 85.1c23.83,66 51.04,111.5 81.97,136.91 30.9,25.42 68.95,38.01 114.24,38.01 41.74,0 73.88,-9.03 96.33,-27.38 22.45,-18.13 33.68,-41.35 33.68,-69.33 0,-16.16 -4.16,-30.13 -12.43,-42.17 -8.27,-12.21 -19.67,-21.26 -34.29,-27.16 -14.74,-5.92 -52.57,-14.57 -113.64,-26.23 -58.5,-11.4 -99.28,-23.44 -122.34,-36.22 -23.05,-12.64 -40.96,-29.95 -53.78,-52.23 -12.82,-22.24 -19.28,-46.5 -19.28,-72.46 0,-39.6 13.2,-75.46 39.76,-107.77 34.28,-40.97 82.35,-61.45 144.03,-61.45 46.88,0 90.41,14.57 130.57,43.92l38.22 -40.36 23.65 0 14.95 192.61 -38.99 0c-16.93,-54.55 -39.76,-93.76 -68.73,-117.59 -28.98,-24.03 -64.63,-36.03 -106.96,-36.03 -36.64,0 -65.44,8.87 -86.3,26.78 -20.7,17.74 -31.11,39.37 -31.11,65.22 0,22.45 9.64,41.35 28.97,56.14 18.68,15.34 55.71,27.38 110.9,36.03 63.81,10.63 105.37,19.72 124.7,26.78 31.49,11.62 56.14,29.36 73.45,53.61 17.36,23.99 26.01,53.35 26.01,88.02 0,47.69 -18.73,88.27 -56.35,121.36 -37.41,33.08 -85.1,49.66 -142.83,49.66 -53.56,0 -103.18,-17.35 -149.08,-52.01l-42.17 48.47 -30.55 0 -11.61 -215.13 38.99 0zm473.77 -650.05l205.65 -9.47 0 589.6 174.96 -153.67c16.93,-14.96 25.19,-28.16 25.19,-39.21 0,-9.65 -4.93,-17.1 -14.78,-22.45 -14.95,-7.67 -39.37,-11.78 -73.06,-12.6l0 -40.19 288.39 0 0 40.19c-56.95,3.18 -100.66,18.13 -130.61,45.34l-123.93 109.92 201.36 277.72c12.38,16.36 33.85,24.42 64.4,24.42l30.13 0 0 43.75 -295.46 0 0 -43.75 29.52 0c22.29,0 37.03,-1.97 44.53,-5.88 7.49,-3.76 11.44,-8.48 11.44,-13.79 0,-5.53 -1.98,-11.06 -5.92,-16.37l-147.75 -205.86 -78.42 69.55 0 136.7c0,11.05 3.76,19.33 11.05,24.64 10.41,7.28 24.81,11.01 43.54,11.01l37.63 0 0 43.75 -290.75 0 0 -43.75 46.5 0c19.06,0 33.25,-3.9 42.5,-12 9.3,-8.06 13.8,-18.9 13.8,-32.31l0 -666.22c0,-17.31 -5.49,-29.95 -16.54,-38.01 -15.94,-11.61 -37.42,-17.36 -64.41,-17.36l-28.97 0 0 -43.7zm773.99 650.05c23.82,66 51.03,111.5 81.97,136.91 30.9,25.42 68.94,38.01 114.24,38.01 41.73,0 73.88,-9.03 96.33,-27.38 22.45,-18.13 33.68,-41.35 33.68,-69.33 0,-16.16 -4.16,-30.13 -12.44,-42.17 -8.26,-12.21 -19.67,-21.26 -34.28,-27.16 -14.74,-5.92 -52.58,-14.57 -113.64,-26.23 -58.5,-11.4 -99.29,-23.44 -122.34,-36.22 -23.06,-12.64 -40.97,-29.95 -53.78,-52.23 -12.82,-22.24 -19.29,-46.5 -19.29,-72.46 0,-39.6 13.2,-75.46 39.76,-107.77 34.29,-40.97 82.36,-61.45 144.03,-61.45 46.88,0 90.41,14.57 130.57,43.92l38.22 -40.36 23.65 0 14.96 192.61 -38.99 0c-16.93,-54.55 -39.77,-93.76 -68.74,-117.59 -28.97,-24.03 -64.62,-36.03 -106.95,-36.03 -36.65,0 -65.44,8.87 -86.31,26.78 -20.69,17.74 -31.11,39.37 -31.11,65.22 0,22.45 9.65,41.35 28.98,56.14 18.68,15.34 55.7,27.38 110.9,36.03 63.8,10.63 105.36,19.72 124.69,26.78 31.5,11.62 56.14,29.36 73.45,53.61 17.36,23.99 26.01,53.35 26.01,88.02 0,47.69 -18.72,88.27 -56.34,121.36 -37.42,33.08 -85.11,49.66 -142.83,49.66 -53.56,0 -103.19,-17.35 -149.09,-52.01l-42.16 48.47 -30.55 0 -11.62 -215.13 39 0zm867.74 404.23l-20.7 -27.77c74.1,-56.74 111.12,-106.57 111.12,-149.34 0,-6.09 -0.98,-10.63 -3.17,-13.59 -2.14,-2.96 -5.31,-4.33 -9.42,-4.33l-12.6 2.36c-7.33,1.2 -13.41,1.58 -17.95,1.58 -17.31,0 -32.31,-6.69 -45.09,-20.1 -12.81,-13.41 -19.33,-29.74 -19.33,-48.85 0,-18.9 6.52,-34.67 19.5,-47.86 13.2,-13.03 29.74,-19.5 50.22,-19.5 25.24,0 46.5,9.85 63.25,29.74 16.93,19.88 25.41,46.88 25.41,81.17 0,75.04 -47.09,147.16 -141.24,216.49zm854.72 -757.62c72.89,0 133.96,26.18 183.41,78.59 49.44,52.4 74.26,121.52 74.26,207.06 0,59.27 -11.05,109.7 -33.29,151.27 -22.07,41.78 -53.56,74.65 -94.58,98.9 -41.14,24.21 -85.28,36.25 -132.54,36.25 -70.15,0 -129.63,-26.61 -178.3,-79.62 -48.64,-52.96 -73.07,-121.74 -73.07,-206.25 0,-84.67 24.42,-153.62 73.28,-206.63 49.06,-53.01 109.31,-79.58 180.83,-79.58zm0 41.35c-43.15,0 -78.42,19.49 -106.18,58.32 -27.77,38.99 -41.57,100.44 -41.57,184.39 0,85.49 13.8,147.93 41.39,187.31 27.39,39.6 62.82,59.3 106.36,59.3 45.12,0 81.55,-19.71 109.53,-59.3 27.78,-39.38 41.74,-104 41.74,-193.61 0,-83.35 -13.75,-143.42 -41.35,-180.66 -27.39,-37.24 -64.02,-55.75 -109.92,-55.75zm520.05 -35.44l0 358.92c0,43.93 11.01,77.78 33.29,101.65 22.07,23.82 50.61,35.82 85.71,35.82 42.94,0 79.74,-17.52 109.92,-52.4 30.13,-34.83 45.29,-78.59 45.29,-131l0 -203.07c0,-18.52 -6.69,-32.91 -20.1,-43.16 -13.2,-10.24 -38.78,-15.94 -76.83,-17.14l0 -40.19 190.3 -9.42 0 443.6c0,20.31 5.7,36.03 17.14,47.09 11.61,10.84 27.59,16.32 48.24,16.32l33.9 0 0 39.03 -180.83 3.52 -11.83 -105.16c-32.31,38.01 -64.79,66.55 -97.49,85.87 -32.74,19.11 -65.82,28.76 -99.28,28.76 -48.85,0 -89.86,-16.33 -122.94,-49.07 -33.47,-32.48 -50.23,-87.46 -50.23,-164.85l0 -235.43c0,-20.66 -8.26,-36.65 -24.8,-47.27 -11.44,-7.88 -35.1,-12 -70.92,-12.82l0 -40.19 191.46 -9.42zm528.15 9.42l195.02 -9.42 0 218.24c20.87,-71.91 45.89,-126.08 75.03,-162.89 29.36,-36.85 65.4,-55.36 108.55,-55.36 29.35,0 52.79,8.87 70.32,26.78 17.52,17.74 26.23,41.78 26.23,71.52 0,24.21 -5.92,43.11 -17.57,56.52 -11.78,13.42 -26.39,20.1 -44.09,20.1 -17.36,0 -31.32,-5.69 -42,-17.35 -10.42,-11.4 -15.73,-26.96 -15.73,-46.66 0,-12.6 2.96,-24.43 9.04,-35.66 5.74,-10.07 8.65,-15.98 8.65,-17.9 0,-5.75 -3.73,-8.7 -11.01,-8.7 -15.77,0 -33.47,9.26 -53.56,27.77 -27.6,25.84 -48.85,61.28 -63.85,106.19 -23.06,70.14 -34.67,126.07 -34.67,168.01l0 116.05c0,12.98 4.54,23.06 13.79,29.95 9.26,6.9 25.2,10.42 47.48,10.42l68.74 0 0 43.75 -336.86 0 0 -43.75 53.78 0c18.13,0 31.93,-3.52 41.19,-10.63 9.25,-7.07 13.79,-15.77 13.79,-25.79l0 -344.14c0,-26.19 -5.53,-45.3 -16.75,-57.51 -11.23,-12.04 -27.16,-18.13 -48.08,-18.13l-47.43 0 0 -41.39zm1005.43 -219.83l38.99 0 0 219.83 174.92 0 0 53.22 -174.92 0 0 347.65c0,30.17 7.08,53.22 21.09,69.17 13.97,15.93 31.88,24.03 53.56,24.03 25.8,0 47.86,-12.21 65.99,-36.64 18.34,-24.26 28.97,-64.45 31.92,-120.59l39 0c-2.36,72.12 -18.73,125.52 -49.07,160.35 -30.34,34.88 -69.71,52.41 -118.18,52.41 -44.53,0 -79.36,-12.22 -104.6,-36.65 -25.19,-24.42 -37.8,-56.52 -37.8,-96.33l0 -363.42 -94.58 0 0 -40.41c43.32,-7.29 76.45,-25.2 99.08,-53.56 33.68,-42.55 51.81,-102.25 54.59,-179.08zm822.8 494.04l-386.48 0c1.97,82.36 17.35,140.68 46.11,174.53 33.08,38.06 75.04,57.17 126.24,57.17 75.25,0 135.75,-42.98 181.43,-128.85l37.45 16.15c-56.19,108.93 -137.3,163.52 -243.31,163.52 -72.3,0 -133.14,-26.22 -182.59,-78.42 -49.45,-52.19 -74.09,-119 -74.09,-200.33 0,-87.68 24.25,-158.38 72.89,-212.38 48.67,-53.94 108.54,-80.94 179.67,-80.94 52.2,0 97.32,13.37 135.55,40.37 38.01,26.78 66.55,65.39 85.87,115.66 13.37,35.26 20.48,79.74 21.26,133.52zm-386.48 -41.35l234.01 0c13.8,0 24.64,-4.71 32.31,-14.18 7.67,-9.26 11.44,-25.19 11.44,-47.86 0,-42.17 -13.2,-78 -39.42,-107.56 -26.4,-29.53 -57.3,-44.32 -93.16,-44.32 -39.98,0 -73.88,17.7 -101.64,53.4 -27.77,35.65 -42.34,89.22 -43.54,160.52zm1041.9 248.2l20.65 32.31c-28.36,28.97 -59.69,43.36 -94.15,43.36 -26.39,0 -48.46,-7.1 -66.59,-21.3 -17.91,-14.36 -33.68,-39.21 -47.27,-75.04 -36.47,38.4 -68.35,64.02 -95.94,77 -27.6,12.82 -60.68,19.33 -99.29,19.33 -55.15,0 -97.1,-12.04 -125.69,-35.87 -28.75,-23.82 -43.11,-54.37 -43.11,-91.61 0,-56.14 32.86,-102.8 98.47,-140.04 65.61,-37.03 152.85,-61.88 261.99,-74.09l0 -81.33c0,-28.97 -11.61,-53.78 -35.05,-74.48 -23.44,-20.69 -53.18,-30.93 -89.26,-30.93 -33.29,0 -62.05,6.9 -86.26,20.91 -17.14,10.24 -25.8,20.49 -25.8,30.51 0,5.74 4.72,14.78 13.98,27.21 11.23,15.34 16.75,28.93 16.75,40.96 0,17.32 -5.53,31.5 -16.75,42.34 -11.01,11.06 -25.63,16.54 -43.54,16.54 -19.29,0 -35.27,-6.47 -48.09,-19.67 -12.77,-13.02 -19.28,-29.95 -19.28,-50.26 0,-38.19 21.47,-73.28 64.4,-104.77 42.94,-31.71 99.29,-47.48 168.84,-47.48 64.4,0 113.46,13.8 147.32,41.57 33.9,27.98 50.82,62.04 50.82,102.03l0 295.07c0,26.01 4.16,45.34 12.65,57.55 8.44,12.82 19.49,19.11 32.86,19.11 15,0 30.72,-6.3 47.31,-18.94zm-190.91 -228.11c-97.1,13.42 -165.88,35.45 -206.46,65.79 -30.13,23.26 -45.29,55.96 -45.29,98.3 0,29.74 7.88,52.79 23.44,69.55 15.77,16.75 36.26,25.19 61.45,25.19 45.12,0 84.12,-17.31 117.25,-51.81 33.08,-34.45 49.62,-77.6 49.62,-129.58l0 -77.43zm312.22 -252.95l156.03 -9.42c8.49,40.19 13.98,78.37 16.54,114.84 29.14,-42.16 58.32,-71.91 87.46,-89.04 29.14,-17.14 61.28,-25.8 96.12,-25.8 37.24,0 67.97,9.85 92.22,29.35 24.22,19.5 42.73,51.22 55.92,95.35 25.62,-41.77 54.21,-73.11 85.71,-93.76 31.54,-20.69 65.99,-30.93 103.23,-30.93 49.06,0 85.87,14.57 110.51,43.92 31.5,38.4 47.27,88.07 47.27,148.74l0 268.29c0,16.16 4.15,27 12.21,32.87 10.84,8.87 26.78,13.2 48.08,13.2l27.17 0 0 43.75 -273.01 0 0 -43.75 27.16 0c23.27,0 39.42,-3.9 48.68,-11.62 9.26,-7.67 13.97,-19.11 13.97,-34.67l0 -268.68c0,-39.98 -9.85,-70.92 -29.35,-92.99 -19.5,-21.85 -45.12,-32.91 -76.84,-32.91 -24.21,0 -45.89,6.52 -65.4,19.33 -19.71,12.99 -34.88,31.32 -46.11,55.37 -16.32,34.28 -24.59,63.2 -24.59,87.25l0 232.64c0,15.98 4.11,27.6 12.59,35.06 8.49,7.49 21.47,11.23 39.21,11.23l36.81 0 0 43.75 -276.56 0 0 -43.75 31.32 0c19.72,0 34.29,-3.9 43.93,-11.62 9.64,-7.67 14.57,-17.31 14.57,-29.36l0 -249.18c0,-52.79 -9.26,-91.02 -27.77,-114.85 -18.52,-23.82 -43.54,-35.87 -74.65,-35.87 -40.58,0 -71.69,13.8 -93.38,41.57 -30.94,39.21 -46.5,84.94 -46.5,137.3l0 215.92c0,16.54 3.73,27.77 11.01,33.86 10.46,8.1 26.62,12.21 48.68,12.21l27.77 0 0 43.75 -274.21 0 0 -43.75 40.8 0c15.34,0 27.16,-3.9 35.44,-11.62 8.27,-7.67 12.43,-17.31 12.43,-29.36l0 -354.16c0,-19.5 -4.93,-34.29 -15,-43.75 -9.81,-9.65 -29.74,-15.73 -59.48,-18.52l0 -40.19zm1081.67 338.05c23.83,66 51.04,111.5 81.97,136.91 30.9,25.42 68.95,38.01 114.24,38.01 41.73,0 73.88,-9.03 96.33,-27.38 22.45,-18.13 33.68,-41.35 33.68,-69.33 0,-16.16 -4.16,-30.13 -12.43,-42.17 -8.27,-12.21 -19.67,-21.26 -34.29,-27.16 -14.74,-5.92 -52.58,-14.57 -113.64,-26.23 -58.5,-11.4 -99.28,-23.44 -122.34,-36.22 -23.05,-12.64 -40.96,-29.95 -53.78,-52.23 -12.82,-22.24 -19.28,-46.5 -19.28,-72.46 0,-39.6 13.2,-75.46 39.76,-107.77 34.28,-40.97 82.35,-61.45 144.02,-61.45 46.89,0 90.42,14.57 130.58,43.92l38.22 -40.36 23.65 0 14.95 192.61 -38.99 0c-16.93,-54.55 -39.76,-93.76 -68.74,-117.59 -28.97,-24.03 -64.62,-36.03 -106.95,-36.03 -36.64,0 -65.44,8.87 -86.3,26.78 -20.7,17.74 -31.11,39.37 -31.11,65.22 0,22.45 9.64,41.35 28.97,56.14 18.68,15.34 55.71,27.38 110.9,36.03 63.81,10.63 105.37,19.72 124.7,26.78 31.49,11.62 56.14,29.36 73.45,53.61 17.36,23.99 26.01,53.35 26.01,88.02 0,47.69 -18.73,88.27 -56.35,121.36 -37.42,33.08 -85.1,49.66 -142.83,49.66 -53.56,0 -103.18,-17.35 -149.08,-52.01l-42.17 48.47 -30.55 0 -11.61 -215.13 38.99 0zm636.3 -47.26l-30.16 0c-0.39,-68.78 -2.36,-120.37 -5.7,-154.65 -5.92,-56.53 -15.77,-123.11 -29.57,-200.17 -15.16,-86.05 -22.62,-142.4 -22.62,-169.01 0,-33.29 6.69,-58.5 20.1,-75.25 13.2,-16.75 30.9,-25.02 52.58,-25.02 22.45,0 40.19,7.88 53.17,23.87 13.03,15.93 19.5,40.96 19.5,74.81 0,28.8 -7.46,85.71 -22.45,170.6 -13.59,74.69 -22.45,136.52 -26.96,185.59 -4.54,49.02 -7.11,105.37 -7.88,169.22zm-14.39 125.26c19.5,0 36.26,6.9 50.05,20.69 13.59,13.98 20.49,30.55 20.49,50.22 0,18.95 -6.9,35.06 -20.87,49.07 -13.8,13.8 -30.55,20.69 -49.67,20.69 -19.29,0 -35.87,-6.72 -49.63,-20.1 -13.63,-13.63 -20.48,-30.16 -20.48,-49.67 0,-20.1 6.69,-36.8 20.26,-50.44 13.42,-13.58 30.13,-20.48 49.84,-20.48z"/>
  </g>
 </g>
</svg>
