<?xml version="1.0" encoding="UTF-8"?>
<!DOCTYPE svg PUBLIC "-//W3C//DTD SVG 1.1//EN" "http://www.w3.org/Graphics/SVG/1.1/DTD/svg11.dtd">
<!-- Creator: CorelDRAW -->
<svg xmlns="http://www.w3.org/2000/svg" xml:space="preserve" width="184.848mm" height="41.1507mm" version="1.1" style="shape-rendering:geometricPrecision; text-rendering:geometricPrecision; image-rendering:optimizeQuality; fill-rule:evenodd; clip-rule:evenodd"
viewBox="0 0 49935.75 11116.68"
 xmlns:xlink="http://www.w3.org/1999/xlink"
 xmlns:xodm="http://www.corel.com/coreldraw/odm/2003">
 <defs>
  <style type="text/css">
   <![CDATA[
    .str0 {stroke:white;stroke-width:71.45;stroke-miterlimit:22.9256}
    .str1 {stroke:white;stroke-width:142.96;stroke-miterlimit:22.9256}
    .str2 {stroke:white;stroke-width:20.59;stroke-miterlimit:22.9256}
    .fil0 {fill:white}
    .fil3 {fill:black;fill-rule:nonzero}
    .fil4 {fill:white;fill-rule:nonzero}
    .fil2 {fill:url(#id0)}
    .fil1 {fill:url(#id1);fill-rule:nonzero}
   ]]>
  </style>
  <linearGradient id="id0" gradientUnits="userSpaceOnUse" x1="-0" y1="4885.12" x2="7374.11" y2="4885.12">
   <stop offset="0" style="stop-opacity:1; stop-color:#3595C8"/>
   <stop offset="1" style="stop-opacity:1; stop-color:#48B2DC"/>
  </linearGradient>
  <linearGradient id="id1" gradientUnits="userSpaceOnUse" xlink:href="#id0" x1="21423.16" y1="5093.86" x2="25875.56" y2="5093.86">
  </linearGradient>
 </defs>
 <g id="Layer_x0020_1">
  <metadata id="CorelCorpID_0Corel-Layer"/>
  <path class="fil0 str0" d="M27589.93 2982.3l-1094.6 12.18c-87.47,16.15 -41.6,-6.11 -87.37,38.74 -52.81,73.18 -80.18,3877.67 -12.16,4164.1 141.29,58.76 1009.51,38.74 1221.49,29.88 59.65,-660.61 -61.92,-1495.8 23.45,-2129.88 176.35,-1310.15 2150.79,-1474.05 2190.5,-22.77 19.1,697.16 -29.01,1444.5 7.19,2133.12l1325.36 -12.21c31.53,-328.31 5.97,-750.14 7.89,-1089.98 1.54,-268.61 -31.34,-849.93 15.64,-1069.02 286.57,-1337.54 2320.39,-1322.15 2362.67,36.82 13.48,434.12 -40.17,1884.75 1.4,2147.9l1273.22 -0.19c59.92,-243.32 21.61,-1994.32 -12.02,-2311.85 -155.47,-1468.43 -1374.88,-2228.13 -2659.69,-1997.83 -932.46,167.11 -1208.12,764.57 -1386.66,925.71 -109.06,-104.76 -173.3,-220.38 -270.36,-318.2 -681.09,-686.55 -1732.42,-873.22 -2559.22,-316.72 -102.68,69.08 -227.62,166.52 -362.02,184.97l15.29 -404.76z"/>
  <path class="fil0" d="M42324.37 2900.23c46.17,104.98 52.76,142.2 108.14,242.24l707.32 1387.47c277.47,538.29 518.44,1071.37 789.58,1589.73 140.75,269.15 286.22,539.94 419.35,808.17 91.09,183.56 161.44,242.27 83.26,468.43 -311.64,901.58 -946.7,1029.71 -1935.51,695.44 -74.67,143.31 -89.42,405.33 -131.59,585.92 -36.79,157.44 -115.35,426.59 -119.73,577.14 945.37,223.28 1741.28,230.49 2434.77,-289.46 639.25,-479.29 765.48,-1048.73 1168.6,-1859.52 214.93,-432.29 1821.67,-3931.67 1897.75,-4181.77l-1321.58 -4.08 -646.57 1540.13c-117.7,245.89 -227.27,499.47 -339.25,756.16 -64.83,148.66 -244.24,616.28 -324.88,716.05l-1233.67 -2629.08c-29.45,-68.86 -51.73,-117.43 -90.53,-195.86 -61.54,-124.54 -57.97,-123.27 -119.62,-157.39 -98.36,-48.68 -1138.74,-46.25 -1345.84,-49.71z"/>
  <path class="fil0 str0" d="M17710.66 4462.32c118.49,-238.27 159.44,-337.2 364.45,-464.16 652.75,-404.19 1420.72,-85.42 1619.09,493.91 -339.82,22.26 -1888.64,36.79 -1983.54,-29.74zm2019.45 1613.9c-659.75,713.35 -1998.89,353.81 -2206.44,-948.78l3588.96 2.67c81.53,-572.36 -332.01,-1360.56 -589.94,-1652.37 -845.02,-955.83 -2283.13,-1089.28 -3207.14,-398.38 -1719.21,1285.51 -1096.87,3527.45 411.7,4223.05 1779.88,820.68 3040.3,-607.58 3029.84,-907.12 -157.55,-109.19 -797.69,-304.7 -1026.99,-319.07z"/>
  <path class="fil0 str0" d="M40046.23 2910.52c-25.99,-375.18 69.1,-832.05 264.2,-1020.12 864.84,-833.72 1595.16,240.86 1714.42,270.58 155.09,38.6 829,-190.21 946.45,-273.9 -48.65,-142.34 -296.05,-551.77 -383.44,-671.18 -458.19,-626.39 -1330.17,-997.32 -2154.38,-813.11 -602.99,134.75 -944.94,488.37 -1210.68,849.85 -324.23,440.99 -385.96,996.46 -404.7,1670.88l-662.99 -0.43c-13.4,216.76 -42.14,897.99 5.94,1076.1l636.84 3.89 20.4 3217.65 1293.86 0.46 2.05 -3236.64 1461.03 -6.65 -5.48 -1057.03 -1523.51 -10.35z"/>
  <path class="fil0 str0" d="M11816.41 3878.18l861.49 13.64c73.1,535.91 -21.5,1113.43 82.53,1681.52 381.77,2084.87 2783.98,1904.31 3219.32,1520.11 -57.68,-180.81 -136.42,-275.63 -219.55,-432.77 -77.21,-145.99 -142.66,-299.59 -205.82,-428.99 -328.98,32.04 -558.44,166.14 -919.39,11.56 -660.02,-282.63 -663.45,-834.18 -661.32,-1361.45l8.27 -894.86c15.86,-78.77 -4.08,-24.07 27.69,-82.61l1707.81 -23.12 -16.78 -1053.03c-348.6,10.4 -1408.78,53.11 -1691.35,-7.02l-8.43 -1263.12 -1256.61 7.19 20.23 1263.28 -921.28 2.46 -26.83 1047.22z"/>
  <path class="fil0 str0" d="M35955.04 2902.63c-19.29,929.35 -34.15,1852.63 -25.64,2784.2 4.08,442.74 -16.61,987.73 13.45,1417.53 11.43,162.47 26.93,125.51 206.42,124.67 231.6,-1.03 879.86,16.34 1013.5,-13.91l7.43 -4299.01 -1215.17 -13.48z"/>
  <path class="fil0 str0" d="M37254.98 1532.86c298.78,-866.17 -1169.7,-1208.93 -1385.2,-378.1 -106.46,410.49 220.87,821.4 520.62,879.51 441.53,85.64 762.22,-204.8 864.57,-501.42z"/>
  <path class="fil1" d="M25143.41 5123.55c0,-499.66 -136.88,-902.02 -408.97,-1205.44 -272.09,-305.08 -626.63,-456.79 -1065.29,-456.79 -453.47,0 -808.03,140.18 -1061.97,420.51 -255.61,280.33 -382.58,671.15 -382.58,1174.11 0,534.29 128.62,946.56 384.23,1235.13 255.61,290.24 620.04,435.34 1090.01,435.34 450.2,0 804.74,-140.15 1060.35,-422.16 255.58,-281.98 384.23,-676.09 384.23,-1180.7zm732.15 -2255.88l0 4422.71 -732.15 0 0 -801.44c-176.46,321.58 -404.03,567.28 -679.42,735.47 -275.39,169.87 -583.76,253.96 -925.11,253.96 -633.22,0 -1146.09,-217.68 -1533.62,-654.67 -387.52,-436.99 -582.11,-1014.15 -582.11,-1733.15 0,-727.23 187.99,-1306.05 565.63,-1736.44 375.99,-430.4 880.59,-644.78 1512.17,-644.78 369.4,0 690.95,82.48 963.04,249.02 272.09,166.54 493.07,415.56 659.61,743.71l0 -834.4 751.95 0z"/>
  <path class="fil2" d="M5400.91 6388.37c-569.74,0 -1031.6,-461.87 -1031.6,-1031.6l0 -68.67c0,-569.74 461.87,-1031.6 1031.63,-1031.6l1973.17 0 0 -2443.95c0,-339.36 -275.12,-614.5 -614.47,-614.5l-2840.74 0 0 1973.2c0,569.74 -461.87,1031.6 -1031.6,1031.6l-68.7 0c-569.74,0 -1031.6,-461.87 -1031.6,-1031.6l0 -1973.2 -1172.49 0c-339.38,0 -614.5,275.14 -614.5,614.5l0 6145.11c0,339.38 275.12,614.5 614.5,614.5l0 -1973.17c0,-569.76 461.87,-1031.6 1031.63,-1031.6l68.67 0c569.76,0 1031.6,461.84 1031.6,1031.6l0 1973.17 4013.23 0c339.36,0 614.47,-275.12 614.47,-614.5l0 -1569.28 -1973.2 0z"/>
  <path class="fil3" d="M15671.92 9076.46l722.77 0 0 84.64 -79.29 0c-66.35,0 -109.41,5.35 -129.24,15.64 -19.83,10.29 -29.74,24.77 -29.74,43.44 0,19.45 4.97,36.98 15.64,52.25l418.19 649.94 302.29 -553.88c13.72,-24.42 20.21,-51.46 20.21,-80.45 0,-38.5 -12.59,-69.37 -37.74,-92.25 -25.56,-23.26 -61.38,-34.69 -108.27,-34.69l-76.99 0 0 -84.64 628.98 0 0 84.64c-72.43,0 -129.21,12.59 -171.16,37.74 -41.55,25.56 -81.96,72.8 -120.84,142.96l-380.45 696.84 0 521.87c0,27.82 7.62,47.28 23.26,59.49 21.72,15.61 53.76,23.23 96.06,23.23l141.42 0 0 84.64 -754.79 0 0 -84.64 147.9 0c40.04,0 68.62,-7.24 86.15,-21.72 17.94,-14.48 26.69,-34.69 26.69,-61l0 -507.39 -513.49 -797.09c-22.48,-34.31 -48.41,-58.32 -78.13,-72.05 -29.74,-13.72 -79.69,-21.34 -149.44,-22.88l0 -84.64zm1940.35 574.11c141.04,0 259.23,50.71 354.92,152.09 95.66,101.41 143.69,235.22 143.69,400.65 0,114.73 -21.34,212.33 -64.4,292.76 -42.71,80.83 -103.71,144.5 -183,191.37 -79.67,46.9 -165.06,70.16 -256.53,70.16 -135.72,0 -250.86,-51.46 -345,-154.01 -94.17,-102.55 -141.42,-235.59 -141.42,-399.14 0,-163.9 47.25,-297.32 141.8,-399.87 94.93,-102.55 211.58,-154.01 349.95,-154.01zm0 80.04c-83.47,0 -151.71,37.74 -205.47,112.84 -53.76,75.48 -80.42,194.42 -80.42,356.81 0,165.44 26.66,286.3 80.04,362.54 53,76.61 121.62,114.73 205.85,114.73 87.31,0 157.82,-38.12 211.96,-114.73 53.76,-76.24 80.8,-201.29 80.8,-374.72 0,-161.25 -26.66,-277.52 -80.04,-349.57 -52.98,-72.05 -123.89,-107.9 -212.71,-107.9zm1006.4 -68.62l0 694.57c0,85.01 21.34,150.58 64.43,196.69 42.68,46.14 97.95,69.37 165.82,69.37 83.1,0 154.39,-33.93 212.71,-101.39 58.32,-67.48 87.69,-152.12 87.69,-253.5l0 -393.03c0,-35.82 -12.97,-63.65 -38.9,-83.47 -25.53,-19.83 -75.07,-30.88 -148.66,-33.17l0 -77.75 368.26 -18.32 0 858.5c0,39.25 11.05,69.75 33.15,91.09 22.5,20.96 53.38,31.63 93.39,31.63l65.59 0 0 75.48 -349.97 6.86 -22.85 -203.55c-62.51,73.56 -125.43,128.86 -188.7,166.19 -63.3,36.98 -127.32,55.68 -192.13,55.68 -94.55,0 -173.84,-31.66 -237.89,-94.93 -64.81,-62.89 -97.2,-169.25 -97.2,-319.07l0 -455.55c0,-40.04 -16.02,-70.91 -48.03,-91.5 -22.1,-15.24 -67.86,-23.23 -137.23,-24.77l0 -77.75 370.53 -18.32zm1022.01 18.32l377.39 -18.32 0 422.37c40.41,-139.12 88.82,-243.97 145.23,-315.26 56.81,-71.26 126.56,-107.11 210.04,-107.11 56.81,0 102.17,17.15 136.1,51.84 33.93,34.31 50.71,80.83 50.71,138.4 0,46.87 -11.45,83.47 -33.93,109.41 -22.88,25.91 -51.08,38.87 -85.39,38.87 -33.55,0 -60.62,-11.05 -81.21,-33.55 -20.21,-22.1 -30.5,-52.22 -30.5,-90.34 0,-24.39 5.73,-47.28 17.56,-69 11.05,-19.45 16.75,-30.88 16.75,-34.69 0,-11.08 -7.24,-16.78 -21.34,-16.78 -30.5,0 -64.81,17.91 -103.68,53.73 -53.38,49.95 -94.55,118.57 -123.51,205.47 -44.6,135.72 -67.1,243.97 -67.1,325.17l0 224.54c0,25.15 8.78,44.6 26.69,57.92 17.91,13.35 48.79,20.21 91.88,20.21l133.05 0 0 84.64 -651.86 0 0 -84.64 104.06 0c35.06,0 61.76,-6.86 79.67,-20.59 17.91,-13.72 26.69,-30.5 26.69,-49.92l0 -665.96c0,-50.71 -10.67,-87.69 -32.39,-111.33 -21.75,-23.26 -52.62,-35.06 -93.04,-35.06l-91.85 0 0 -80.04zm1945.67 -425.45l75.48 0 0 425.45 338.49 0 0 102.93 -338.49 0 0 672.82c0,58.32 13.72,102.93 40.79,133.8 27.07,30.88 61.76,46.49 103.68,46.49 49.92,0 92.63,-23.64 127.7,-70.89 35.44,-46.9 56.03,-124.67 61.76,-233.3l75.48 0c-4.57,139.5 -36.2,242.81 -94.93,310.29 -58.7,67.48 -134.94,101.41 -228.71,101.41 -86.15,0 -153.63,-23.64 -202.42,-70.91 -48.82,-47.28 -73.21,-109.41 -73.21,-186.4l0 -703.32 -182.97 0 0 -78.15c83.85,-14.1 147.9,-48.79 191.75,-103.68 65.19,-82.37 100.25,-197.85 105.6,-346.54zm1716.96 1356.35l40.04 62.51c-54.89,56.06 -115.51,83.88 -182.24,83.88 -51.08,0 -93.77,-13.72 -128.83,-41.17 -34.69,-27.82 -65.19,-75.86 -91.5,-145.26 -70.51,74.34 -132.26,123.89 -185.64,149.07 -53.38,24.77 -117.41,37.36 -192.13,37.36 -106.73,0 -187.94,-23.26 -243.21,-69.4 -55.65,-46.11 -83.47,-105.19 -83.47,-177.24 0,-108.65 63.65,-198.99 190.59,-271.04 126.94,-71.67 295.84,-119.7 507.01,-143.34l0 -157.44c0,-56.03 -22.48,-104.06 -67.86,-144.1 -45.36,-40.04 -102.93,-59.84 -172.68,-59.84 -64.43,0 -120.08,13.32 -166.98,40.39 -33.15,19.83 -49.92,39.66 -49.92,59.11 0,11.05 9.13,28.58 27.07,52.6 21.72,29.74 32.39,56.03 32.39,79.29 0,33.55 -10.67,61 -32.39,81.96 -21.37,21.34 -49.57,32.01 -84.26,32.01 -37.36,0 -68.24,-12.56 -93.01,-38.12 -24.77,-25.15 -37.36,-57.95 -37.36,-97.2 0,-73.97 41.55,-141.83 124.65,-202.8 83.12,-61.38 192.13,-91.88 326.71,-91.88 124.65,0 219.57,26.69 285.14,80.42 65.56,54.14 98.33,120.08 98.33,197.48l0 571.03c0,50.33 8.02,87.69 24.42,111.33 16.37,24.77 37.74,36.98 63.65,36.98 28.99,0 59.49,-12.21 91.5,-36.6zm-369.4 -441.44c-187.94,25.93 -320.96,68.62 -399.49,127.32 -58.32,44.98 -87.69,108.27 -87.69,190.24 0,57.57 15.24,102.17 45.36,134.56 30.5,32.42 70.16,48.79 118.95,48.79 87.28,0 162.76,-33.53 226.81,-100.25 64.05,-66.7 96.06,-150.2 96.06,-250.83l0 -149.82zm663.69 164.68c46.11,127.72 98.71,215.77 158.58,264.96 59.84,49.17 133.42,73.56 221.09,73.56 80.83,0 142.96,-17.53 186.43,-52.98 43.44,-35.09 65.19,-80.07 65.19,-134.21 0,-31.26 -8.02,-58.32 -24.02,-81.56 -16.02,-23.64 -38.12,-41.17 -66.35,-52.62 -28.58,-11.43 -101.76,-28.2 -219.95,-50.71 -113.22,-22.1 -192.13,-45.36 -236.73,-70.13 -44.6,-24.39 -79.29,-57.95 -104.06,-101.01 -24.77,-43.09 -37.36,-89.99 -37.36,-140.29 0,-76.64 25.53,-146.01 76.99,-208.53 66.35,-79.29 159.36,-118.95 278.68,-118.95 90.71,0 174.97,28.2 252.72,85.01l73.97 -78.15 45.74 0 28.99 372.83 -75.48 0c-32.8,-105.6 -77.02,-181.46 -133.05,-227.57 -56.03,-46.52 -125.02,-69.78 -206.99,-69.78 -70.91,0 -126.56,17.15 -166.98,51.84 -40.04,34.31 -60.24,76.26 -60.24,126.18 0,43.47 18.69,80.04 56.06,108.65 36.2,29.72 107.87,52.98 214.6,69.75 123.51,20.59 203.96,38.12 241.32,51.84 60.97,22.5 108.63,56.81 142.18,103.68 33.55,46.52 50.33,103.33 50.33,170.41 0,92.25 -36.23,170.79 -109.03,234.84 -72.43,64.02 -164.68,96.06 -276.39,96.06 -103.68,0 -199.75,-33.55 -288.57,-100.66l-81.58 93.79 -59.08 0 -22.48 -416.29 75.48 0zm916.79 -1257.99l397.98 -18.29 0 1140.96 338.52 -297.35c32.8,-28.96 48.79,-54.52 48.79,-75.86 0,-18.67 -9.51,-33.17 -28.58,-43.47 -28.96,-14.86 -76.24,-22.85 -141.42,-24.39l0 -77.75 558.09 0 0 77.75c-110.19,6.11 -194.8,35.06 -252.75,87.69l-239.78 212.71 389.58 537.51c24.04,31.63 65.59,47.25 124.67,47.25l58.32 0 0 84.64 -571.82 0 0 -84.64 57.19 0c43.06,0 71.67,-3.81 86.15,-11.43 14.48,-7.24 22.1,-16.4 22.1,-26.69 0,-10.67 -3.81,-21.34 -11.43,-31.63l-285.89 -398.36 -151.74 134.56 0 264.55c0,21.34 7.27,37.36 21.37,47.65 20.21,14.1 48.03,21.34 84.23,21.34l72.8 0 0 84.64 -562.66 0 0 -84.64 89.99 0c36.96,0 64.4,-7.62 82.34,-23.23 17.91,-15.64 26.66,-36.6 26.66,-62.54l0 -1289.24c0,-33.53 -10.67,-57.95 -32.01,-73.56 -30.88,-22.5 -72.43,-33.55 -124.65,-33.55l-56.06 0 0 -84.64zm1497.77 1257.99c46.11,127.72 98.71,215.77 158.58,264.96 59.84,49.17 133.42,73.56 221.09,73.56 80.83,0 142.96,-17.53 186.43,-52.98 43.44,-35.09 65.19,-80.07 65.19,-134.21 0,-31.26 -8.02,-58.32 -24.02,-81.56 -16.02,-23.64 -38.12,-41.17 -66.35,-52.62 -28.58,-11.43 -101.76,-28.2 -219.95,-50.71 -113.22,-22.1 -192.13,-45.36 -236.73,-70.13 -44.6,-24.39 -79.29,-57.95 -104.06,-101.01 -24.77,-43.09 -37.36,-89.99 -37.36,-140.29 0,-76.64 25.53,-146.01 76.99,-208.53 66.35,-79.29 159.36,-118.95 278.68,-118.95 90.71,0 174.97,28.2 252.72,85.01l73.97 -78.15 45.74 0 28.99 372.83 -75.48 0c-32.8,-105.6 -77.02,-181.46 -133.05,-227.57 -56.03,-46.52 -125.02,-69.78 -206.99,-69.78 -70.91,0 -126.56,17.15 -166.98,51.84 -40.04,34.31 -60.24,76.26 -60.24,126.18 0,43.47 18.69,80.04 56.06,108.65 36.2,29.72 107.87,52.98 214.6,69.75 123.51,20.59 203.96,38.12 241.32,51.84 60.97,22.5 108.63,56.81 142.18,103.68 33.55,46.52 50.33,103.33 50.33,170.41 0,92.25 -36.23,170.79 -109.03,234.84 -72.43,64.02 -164.68,96.06 -276.39,96.06 -103.68,0 -199.75,-33.55 -288.57,-100.66l-81.58 93.79 -59.08 0 -22.48 -416.29 75.48 0zm1679.2 782.23l-40.01 -53.73c143.31,-109.79 214.98,-206.23 214.98,-288.97 0,-11.81 -1.89,-20.59 -6.08,-26.29 -4.21,-5.73 -10.29,-8.4 -18.32,-8.4l-24.39 4.59c-14.1,2.27 -25.91,3.05 -34.69,3.05 -33.55,0 -62.51,-12.97 -87.28,-38.9 -24.8,-25.91 -37.36,-57.57 -37.36,-94.52 0,-36.6 12.56,-67.1 37.74,-92.63 25.53,-25.18 57.54,-37.74 97.2,-37.74 48.79,0 89.96,19.05 122.38,57.54 32.77,38.52 49.17,90.74 49.17,157.06 0,145.26 -91.12,284.76 -273.33,418.94zm1654.05 -1466.11c141.04,0 259.23,50.71 354.92,152.09 95.66,101.41 143.69,235.22 143.69,400.65 0,114.73 -21.34,212.33 -64.4,292.76 -42.71,80.83 -103.71,144.5 -183,191.37 -79.67,46.9 -165.06,70.16 -256.53,70.16 -135.72,0 -250.86,-51.46 -345,-154.01 -94.17,-102.55 -141.42,-235.59 -141.42,-399.14 0,-163.9 47.25,-297.32 141.8,-399.87 94.93,-102.55 211.58,-154.01 349.95,-154.01zm0 80.04c-83.47,0 -151.71,37.74 -205.47,112.84 -53.76,75.48 -80.42,194.42 -80.42,356.81 0,165.44 26.66,286.3 80.04,362.54 53,76.61 121.62,114.73 205.85,114.73 87.31,0 157.82,-38.12 211.96,-114.73 53.76,-76.24 80.8,-201.29 80.8,-374.72 0,-161.25 -26.66,-277.52 -80.04,-349.57 -52.98,-72.05 -123.89,-107.9 -212.71,-107.9zm1006.4 -68.62l0 694.57c0,85.01 21.34,150.58 64.43,196.69 42.68,46.14 97.95,69.37 165.82,69.37 83.1,0 154.39,-33.93 212.71,-101.39 58.32,-67.48 87.69,-152.12 87.69,-253.5l0 -393.03c0,-35.82 -12.97,-63.65 -38.9,-83.47 -25.53,-19.83 -75.07,-30.88 -148.66,-33.17l0 -77.75 368.26 -18.32 0 858.5c0,39.25 11.05,69.75 33.15,91.09 22.5,20.96 53.38,31.63 93.39,31.63l65.59 0 0 75.48 -349.97 6.86 -22.85 -203.55c-62.51,73.56 -125.43,128.86 -188.7,166.19 -63.3,36.98 -127.32,55.68 -192.13,55.68 -94.55,0 -173.84,-31.66 -237.89,-94.93 -64.81,-62.89 -97.2,-169.25 -97.2,-319.07l0 -455.55c0,-40.04 -16.02,-70.91 -48.03,-91.5 -22.1,-15.24 -67.86,-23.23 -137.23,-24.77l0 -77.75 370.53 -18.32zm1022.01 18.32l377.39 -18.32 0 422.37c40.41,-139.12 88.82,-243.97 145.23,-315.26 56.81,-71.26 126.56,-107.11 210.04,-107.11 56.81,0 102.17,17.15 136.1,51.84 33.93,34.31 50.71,80.83 50.71,138.4 0,46.87 -11.45,83.47 -33.93,109.41 -22.88,25.91 -51.08,38.87 -85.39,38.87 -33.55,0 -60.62,-11.05 -81.21,-33.55 -20.21,-22.1 -30.5,-52.22 -30.5,-90.34 0,-24.39 5.73,-47.28 17.56,-69 11.05,-19.45 16.75,-30.88 16.75,-34.69 0,-11.08 -7.24,-16.78 -21.34,-16.78 -30.5,0 -64.81,17.91 -103.68,53.73 -53.38,49.95 -94.55,118.57 -123.51,205.47 -44.6,135.72 -67.1,243.97 -67.1,325.17l0 224.54c0,25.15 8.78,44.6 26.69,57.92 17.91,13.35 48.79,20.21 91.88,20.21l133.05 0 0 84.64 -651.86 0 0 -84.64 104.06 0c35.06,0 61.76,-6.86 79.67,-20.59 17.91,-13.72 26.69,-30.5 26.69,-49.92l0 -665.96c0,-50.71 -10.67,-87.69 -32.39,-111.33 -21.75,-23.26 -52.62,-35.06 -93.04,-35.06l-91.85 0 0 -80.04zm1945.67 -425.45l75.48 0 0 425.45 338.49 0 0 102.93 -338.49 0 0 672.82c0,58.32 13.72,102.93 40.79,133.8 27.07,30.88 61.76,46.49 103.68,46.49 49.92,0 92.63,-23.64 127.7,-70.89 35.44,-46.9 56.03,-124.67 61.76,-233.3l75.48 0c-4.57,139.5 -36.2,242.81 -94.93,310.29 -58.7,67.48 -134.94,101.41 -228.71,101.41 -86.15,0 -153.63,-23.64 -202.42,-70.91 -48.82,-47.28 -73.21,-109.41 -73.21,-186.4l0 -703.32 -182.97 0 0 -78.15c83.85,-14.1 147.9,-48.79 191.75,-103.68 65.19,-82.37 100.25,-197.85 105.6,-346.54zm1592.29 956.07l-747.92 0c3.81,159.36 33.55,272.2 89.2,337.76 64.05,73.56 145.26,110.54 244.37,110.54 145.61,0 262.64,-83.1 351.08,-249.32l72.43 31.26c-108.65,210.82 -265.69,316.42 -470.78,316.42 -139.91,0 -257.69,-50.71 -353.38,-151.74 -95.69,-101.01 -143.34,-230.25 -143.34,-387.69 0,-169.62 46.9,-306.48 141.04,-410.92 94.17,-104.47 210.04,-156.68 347.68,-156.68 101.01,0 188.29,25.91 262.26,78.15 73.56,51.84 128.86,126.56 166.19,223.76 25.93,68.24 39.66,154.39 41.17,258.45zm-747.92 -80.04l452.87 0c26.69,0 47.65,-9.16 62.54,-27.45 14.86,-17.91 22.1,-48.79 22.1,-92.63 0,-81.58 -25.53,-150.96 -76.24,-208.15 -51.08,-57.16 -110.92,-85.77 -180.32,-85.77 -77.37,0 -142.93,34.31 -196.69,103.3 -53.76,69 -81.96,172.7 -84.26,310.69zm2016.23 480.32l40.04 62.51c-54.89,56.06 -115.51,83.88 -182.24,83.88 -51.08,0 -93.77,-13.72 -128.83,-41.17 -34.69,-27.82 -65.19,-75.86 -91.5,-145.26 -70.51,74.34 -132.26,123.89 -185.64,149.07 -53.38,24.77 -117.41,37.36 -192.13,37.36 -106.73,0 -187.94,-23.26 -243.21,-69.4 -55.65,-46.11 -83.47,-105.19 -83.47,-177.24 0,-108.65 63.65,-198.99 190.59,-271.04 126.94,-71.67 295.84,-119.7 507.01,-143.34l0 -157.44c0,-56.03 -22.48,-104.06 -67.86,-144.1 -45.36,-40.04 -102.93,-59.84 -172.68,-59.84 -64.43,0 -120.08,13.32 -166.98,40.39 -33.15,19.83 -49.92,39.66 -49.92,59.11 0,11.05 9.13,28.58 27.07,52.6 21.72,29.74 32.39,56.03 32.39,79.29 0,33.55 -10.67,61 -32.39,81.96 -21.37,21.34 -49.57,32.01 -84.26,32.01 -37.36,0 -68.24,-12.56 -93.01,-38.12 -24.77,-25.15 -37.36,-57.95 -37.36,-97.2 0,-73.97 41.55,-141.83 124.65,-202.8 83.12,-61.38 192.13,-91.88 326.71,-91.88 124.65,0 219.57,26.69 285.14,80.42 65.56,54.14 98.33,120.08 98.33,197.48l0 571.03c0,50.33 8.02,87.69 24.42,111.33 16.37,24.77 37.74,36.98 63.65,36.98 28.99,0 59.49,-12.21 91.5,-36.6zm-369.4 -441.44c-187.94,25.93 -320.96,68.62 -399.49,127.32 -58.32,44.98 -87.69,108.27 -87.69,190.24 0,57.57 15.24,102.17 45.36,134.56 30.5,32.42 70.16,48.79 118.95,48.79 87.28,0 162.76,-33.53 226.81,-100.25 64.05,-66.7 96.06,-150.2 96.06,-250.83l0 -149.82zm604.21 -489.45l301.91 -18.32c16.4,77.77 27.07,151.71 32.04,222.25 56.41,-81.58 112.84,-139.15 169.25,-172.3 56.43,-33.17 118.57,-49.95 186.02,-49.95 72.05,0 131.53,19.07 178.4,56.81 46.9,37.74 82.72,99.12 108.27,184.51 49.54,-80.83 104.84,-141.45 165.82,-181.46 61,-40.04 127.72,-59.86 199.77,-59.86 94.9,0 166.19,28.2 213.85,85.01 61,74.34 91.5,170.41 91.5,287.81l0 519.19c0,31.26 8,52.25 23.61,63.67 20.99,17.15 51.87,25.53 93.04,25.53l52.6 0 0 84.64 -528.35 0 0 -84.64 52.6 0c44.98,0 76.24,-7.62 94.17,-22.48 17.91,-14.89 27.07,-36.98 27.07,-67.1l0 -519.95c0,-77.4 -19.07,-137.23 -56.81,-179.94 -37.74,-42.3 -87.28,-63.65 -148.66,-63.65 -46.9,0 -88.82,12.56 -126.56,37.33 -38.12,25.18 -67.48,60.62 -89.2,107.14 -31.63,66.32 -47.65,122.35 -47.65,168.87l0 450.2c0,30.88 8,53.38 24.39,67.86 16.4,14.48 41.55,21.72 75.86,21.72l71.29 0 0 84.64 -535.21 0 0 -84.64 60.59 0c38.14,0 66.35,-7.62 85.01,-22.48 18.69,-14.89 28.2,-33.55 28.2,-56.81l0 -482.21c0,-102.17 -17.91,-176.13 -53.73,-222.25 -35.85,-46.14 -84.26,-69.37 -144.47,-69.37 -78.53,0 -138.77,26.66 -180.7,80.42 -59.84,75.86 -89.96,164.3 -89.96,265.69l0 417.81c0,32.04 7.24,53.76 21.34,65.56 20.21,15.64 51.46,23.64 94.15,23.64l53.76 0 0 84.64 -530.65 0 0 -84.64 78.91 0c29.74,0 52.62,-7.62 68.62,-22.48 16.02,-14.89 24.02,-33.55 24.02,-56.81l0 -685.41c0,-37.74 -9.51,-66.32 -28.96,-84.61 -19.07,-18.69 -57.57,-30.5 -115.14,-35.85l0 -77.75zm2093.22 654.13c46.11,127.72 98.71,215.77 158.58,264.96 59.84,49.17 133.42,73.56 221.09,73.56 80.83,0 142.96,-17.53 186.43,-52.98 43.44,-35.09 65.19,-80.07 65.19,-134.21 0,-31.26 -8.02,-58.32 -24.02,-81.56 -16.02,-23.64 -38.12,-41.17 -66.35,-52.62 -28.58,-11.43 -101.76,-28.2 -219.95,-50.71 -113.22,-22.1 -192.13,-45.36 -236.73,-70.13 -44.6,-24.39 -79.29,-57.95 -104.06,-101.01 -24.77,-43.09 -37.36,-89.99 -37.36,-140.29 0,-76.64 25.53,-146.01 76.99,-208.53 66.35,-79.29 159.36,-118.95 278.68,-118.95 90.71,0 174.97,28.2 252.72,85.01l73.97 -78.15 45.74 0 28.99 372.83 -75.48 0c-32.8,-105.6 -77.02,-181.46 -133.05,-227.57 -56.03,-46.52 -125.02,-69.78 -206.99,-69.78 -70.91,0 -126.56,17.15 -166.98,51.84 -40.04,34.31 -60.24,76.26 -60.24,126.18 0,43.47 18.69,80.04 56.06,108.65 36.2,29.72 107.87,52.98 214.6,69.75 123.51,20.59 203.96,38.12 241.32,51.84 60.97,22.5 108.63,56.81 142.18,103.68 33.55,46.52 50.33,103.33 50.33,170.41 0,92.25 -36.23,170.79 -109.03,234.84 -72.43,64.02 -164.68,96.06 -276.39,96.06 -103.68,0 -199.75,-33.55 -288.57,-100.66l-81.58 93.79 -59.08 0 -22.48 -416.29 75.48 0zm1231.3 -91.47l-58.32 0c-0.76,-133.05 -4.57,-232.92 -11.05,-299.27 -11.45,-109.41 -30.5,-238.24 -57.19,-387.31 -29.34,-166.57 -43.84,-275.6 -43.84,-327.07 0,-64.43 12.97,-113.22 38.9,-145.61 25.53,-32.42 59.84,-48.44 101.76,-48.44 43.47,0 77.77,15.26 102.93,46.14 25.18,30.88 37.74,79.29 37.74,144.85 0,55.65 -14.48,165.82 -43.44,330.12 -26.31,144.5 -43.47,264.18 -52.22,359.1 -8.78,94.93 -13.75,203.96 -15.26,327.47zm-27.82 242.43c37.74,0 70.13,13.35 96.82,40.04 26.31,27.07 39.66,59.08 39.66,97.2 0,36.6 -13.35,67.86 -40.41,94.93 -26.69,26.69 -59.08,40.04 -96.06,40.04 -37.36,0 -69.37,-12.97 -96.06,-38.9 -26.31,-26.29 -39.66,-58.32 -39.66,-96.06 0,-38.87 12.97,-71.26 39.28,-97.58 25.91,-26.31 58.32,-39.66 96.44,-39.66z"/>
  <path class="fil0 str1" d="M49063.29 71.48c442.36,0 800.98,365.94 800.98,817.33 0,451.39 -358.62,817.33 -800.98,817.33 -442.36,0 -800.98,-365.94 -800.98,-817.33 0,-451.39 358.62,-817.33 800.98,-817.33z"/>
  <path class="fil4 str2" d="M49321.9 1013.83l111.19 28.1c-23.21,91.09 -64.94,160.33 -125.21,208.12 -60.27,47.79 -134.02,71.78 -221.2,71.78 -90.12,0 -163.47,-18.34 -220.01,-55.19 -56.57,-36.69 -99.49,-89.93 -128.94,-159.57 -29.45,-69.81 -44.28,-144.53 -44.28,-224.49 0,-87.18 16.59,-163.25 49.92,-228.22 33.36,-64.94 80.77,-114.3 142.2,-148.04 61.43,-33.74 129.13,-50.52 202.85,-50.52 83.88,0 154.28,21.26 211.23,64 57.16,42.71 96.96,102.57 119.38,179.84l-108.84 25.74c-19.32,-60.86 -47.6,-105.33 -84.45,-133.05 -36.87,-27.88 -83.29,-41.74 -139.26,-41.74 -64.19,0 -118.03,15.43 -161.11,46.22 -43.12,30.82 -73.53,72.37 -90.9,124.27 -17.56,52.08 -26.31,105.71 -26.31,160.9 0,71.21 10.32,133.42 31.01,186.48 20.67,53.25 52.84,92.85 96.52,119.16 43.71,26.34 90.9,39.41 141.83,39.41 62.03,0 114.3,-17.94 157.2,-53.65 42.9,-35.88 71.97,-88.93 87.18,-159.55z"/>
 </g>
</svg>
