<?xml version="1.0" encoding="UTF-8"?>
<!DOCTYPE svg PUBLIC "-//W3C//DTD SVG 1.1//EN" "http://www.w3.org/Graphics/SVG/1.1/DTD/svg11.dtd">
<!-- Creator: CorelDRAW -->
<svg xmlns="http://www.w3.org/2000/svg" xml:space="preserve" width="173.976mm" height="191.751mm" version="1.1" style="shape-rendering:geometricPrecision; text-rendering:geometricPrecision; image-rendering:optimizeQuality; fill-rule:evenodd; clip-rule:evenodd"
viewBox="0 0 8095.25 8922.31"
 xmlns:xlink="http://www.w3.org/1999/xlink"
 xmlns:xodm="http://www.corel.com/coreldraw/odm/2003">
 <defs>
  <style type="text/css">
   <![CDATA[
    .str0 {stroke:#8295BD;stroke-width:8.21;stroke-miterlimit:10;stroke-dasharray:98.486970 98.486970}
    .fil12 {fill:none;fill-rule:nonzero}
    .fil11 {fill:#183F67;fill-rule:nonzero}
    .fil5 {fill:#1A3657;fill-rule:nonzero}
    .fil1 {fill:#8295BD;fill-rule:nonzero}
    .fil3 {fill:#A37B90;fill-rule:nonzero}
    .fil4 {fill:#BFCDED;fill-rule:nonzero}
    .fil0 {fill:#D4E2FF;fill-rule:nonzero}
    .fil2 {fill:#EDF4FF;fill-rule:nonzero}
    .fil10 {fill:#EDF6FF;fill-rule:nonzero}
    .fil13 {fill:#F00070;fill-rule:nonzero}
    .fil7 {fill:white;fill-rule:nonzero}
    .fil9 {fill:#FFA0AA;fill-rule:nonzero;fill-opacity:0.701961}
    .fil8 {fill:#FFA0AA;fill-rule:nonzero}
    .fil6 {fill:#FFD1D6;fill-rule:nonzero}
   ]]>
  </style>
 </defs>
 <g id="Layer_x0020_1">
  <metadata id="CorelCorpID_0Corel-Layer"/>
  <g id="_2160609619440">
   <path class="fil0" d="M3494.18 888.33c2034.87,251.18 3656.14,2698.51 3877.16,3389.89 243.05,760.42 634.03,1270.7 -221.52,2606.83 -328.66,513.3 -749.28,934.64 -1696.68,1173.69 -876.69,221.22 -2284.05,-372.48 -2979.14,-942.37 -381.68,-313.02 -661.03,-749.83 -785.68,-1223.45 -98.89,-375.72 -30.75,-791.53 -152.91,-1158.24 -126.86,-380.8 -160.71,-348.14 -416,-626.65 -295.28,-321.95 -629.13,-938.96 -416.19,-1615.13 291.5,-925.65 1684.05,-1741.2 2790.97,-1604.57z"/>
   <g>
    <polygon class="fil1" points="5163.2,2040.95 5395.75,3213.56 7268.47,2842.13 7035.92,1669.5 "/>
    <polygon class="fil2" points="6295.57,2441.53 5163.2,2040.95 7035.92,1669.5 "/>
   </g>
   <g>
    <polygon class="fil1" points="4645.56,1054.03 4749.2,1494.82 5453.14,1329.23 5349.52,888.46 "/>
    <polygon class="fil2" points="5079.55,1190.59 4645.56,1054.03 5349.52,888.46 "/>
   </g>
   <path class="fil3" d="M2767.56 2157.35c310.15,-807.64 1501.79,-764.32 1843.13,-4.15 103.7,230.91 124.46,506.12 293.4,694.62 226.2,252.39 628.58,245.85 948.67,134.47 320.04,-111.39 611.42,-305.87 943.56,-373.08 580.69,-117.5 1062.35,385.17 1225.21,901.56 179.09,567.94 20.48,1214.64 -352.47,1678.89 -372.96,464.25 -939.25,752.18 -1526.85,848.84 -656.91,107.98 -1371.46,-25.34 -1883.23,-451.13 -281.02,-233.88 -486.77,-560.13 -578.62,-913.93 -72.87,-280.61 -22.82,-591.1 -112.85,-865.04 -93.42,-284.4 -386.63,-398.25 -574.67,-606.3 -217.41,-240.55 -334.18,-572.39 -269.05,-894.72 10.36,-51.14 25.07,-101.34 43.77,-150.02z"/>
   <g>
    <g>
     <g>
      <polygon class="fil4" points="2748.93,4058.93 3133.21,3849.3 3834.05,3849.3 4587.45,4105.32 3519.29,5846.25 2748.93,4094.95 "/>
      <g>
       <g>
        <path class="fil5" d="M3521.4 4278.24c0,21.51 -17.41,38.97 -38.99,38.97 -21.49,0 -38.99,-17.46 -38.99,-38.97 0,-21.53 17.5,-38.97 38.99,-38.97 21.59,0 38.99,17.44 38.99,38.97z"/>
       </g>
       <g>
        <path class="fil5" d="M3521.4 4601.38c0,21.53 -17.41,38.99 -38.99,38.99 -21.49,0 -38.99,-17.46 -38.99,-38.99 0,-21.55 17.5,-38.99 38.99,-38.99 21.59,0 38.99,17.44 38.99,38.99z"/>
       </g>
       <g>
        <path class="fil5" d="M3521.4 4924.57c0,21.5 -17.41,38.96 -38.99,38.96 -21.49,0 -38.99,-17.47 -38.99,-38.96 0,-21.55 17.5,-39.01 38.99,-39.01 21.59,0 38.99,17.46 38.99,39.01z"/>
       </g>
      </g>
     </g>
     <g>
      <g>
       <path class="fil5" d="M3158.2 3075.97l-18.82 811.48c224.93,14.19 83.28,-10.9 338.82,5.95 175.09,11.51 230.79,-16.01 407,-14.86l51.4 -1052.85 -778.4 250.27z"/>
      </g>
     </g>
     <path class="fil6" d="M3873.46 2873.1c0,466.42 -321.45,849.12 -731.16,888.48l15.9 -685.61 714.86 -229.84c0.24,8.97 0.4,17.95 0.4,26.98z"/>
     <g>
      <g>
       <path class="fil7" d="M2972.15 2798.45c-39.1,417.58 176.13,706.73 452.56,687.03 202.33,-14.45 604.74,-198.07 674.71,-720.31 55.62,-415.64 -92.24,-684.37 -535.35,-720.58 -528.27,-43.18 -545.6,259 -591.91,753.85z"/>
      </g>
      <g>
       <polygon class="fil8" points="3324.71,2891.53 3494.37,2579.73 3523.94,2931.65 "/>
       <g>
        <path class="fil5" d="M3738.44 2705.9c-5.83,21.87 -28.3,34.78 -50.09,28.9 -21.72,-5.84 -34.81,-28.27 -28.88,-50.07 5.91,-21.83 28.18,-34.74 50.04,-28.88 21.8,5.86 34.79,28.23 28.93,50.04z"/>
       </g>
       <g>
        <path class="fil5" d="M3301.13 2625.55c-5.89,21.84 -28.24,34.73 -50.21,28.86 -21.71,-5.85 -34.67,-28.28 -28.84,-50.09 5.91,-21.74 28.29,-34.72 50.07,-28.89 21.86,5.84 34.82,28.23 28.98,50.13z"/>
       </g>
       <path class="fil6" d="M3428.58 3052.65c-73.86,-10.71 -138.36,-36.49 -187.7,-70.75 -2.75,6.46 -4.93,13.03 -5.7,19.82 -16.14,114.49 131.44,239.2 267.64,188.63 44.73,-16.59 112.65,-84.29 125.59,-121.3 3.59,-10.36 5.63,-20.38 5.61,-29.98 -60.46,18.37 -131.58,24.28 -205.45,13.57z"/>
       <g>
        <path class="fil5" d="M3366.7 2515.18l34.71 -18.01c-98.92,-106.78 -243.04,-38.72 -249.4,-35.45l25.11 26.98c61.37,-31.84 146.34,-20 189.58,26.49z"/>
       </g>
       <g>
        <path class="fil5" d="M3851.1 2576.62l37.27 -19.38c-106.33,-114.87 -261.4,-41.63 -268.2,-38.13l26.97 29.02c66.07,-34.24 157.42,-21.51 203.95,28.5z"/>
       </g>
       <path class="fil9" d="M3873.73 2969.55c-3.12,54.74 -49.96,96.57 -104.69,93.47 -54.69,-3.12 -96.55,-49.98 -93.43,-104.69 3.12,-54.7 49.99,-96.56 104.69,-93.43 54.69,3.08 96.56,49.97 93.43,104.66z"/>
       <path class="fil9" d="M3232.25 2870.33c-3.13,54.72 -49.96,96.56 -104.67,93.46 -54.72,-3.09 -96.52,-49.96 -93.43,-104.68 3.1,-54.7 49.96,-96.55 104.64,-93.44 54.74,3.11 96.55,49.98 93.46,104.67z"/>
      </g>
      <polygon class="fil10" points="3007.21,3874.03 3145.98,4259.23 3478.2,3893.4 3134.6,3769.87 "/>
      <polygon class="fil10" points="4000.68,3869.4 3854.7,4321.03 3478.2,3893.4 3890.51,3769.87 "/>
      <g>
       <path class="fil10" d="M4254.76 2670.46l-104.17 -67.99c13.79,-348.09 36.72,-629.21 -189.26,-756.64 -215.31,-121.19 -351.78,-128.01 -669.66,-26.75l-84.59 34.18c277.68,-176.68 587.13,-145.39 813.88,-17.77 238.14,134.21 248.12,473.47 233.8,834.97z"/>
       <g>
        <g>
         <g>
          <path class="fil5" d="M3577.24 3260.86c190.69,67.68 400.89,-32.45 468.58,-223.12l-28.32 -10.06c-62.09,175.09 -255.16,267.04 -430.23,204.91l-10.03 28.28z"/>
         </g>
         <g>
          <path class="fil5" d="M3522.55 3213.96c-10.42,29.33 4.86,61.65 34.23,72.07 29.35,10.46 61.59,-5 72.01,-34.33 10.45,-29.42 -4.86,-61.72 -34.2,-72.14 -29.4,-10.42 -61.63,5.01 -72.04,34.4z"/>
         </g>
        </g>
        <g>
         <path class="fil7" d="M4163.26 2604.61c-4.15,-0.87 -8.4,-1.45 -12.68,-2.14l-102.16 471.27c4.15,1.09 8.24,2.44 12.58,3.42 130.58,28.26 259.13,-54.64 287.37,-185.09 28.4,-130.49 -54.57,-259.23 -185.11,-287.46z"/>
         <path class="fil10" d="M4125.38 3060.34c-7.02,32.29 -38.85,52.82 -71.19,45.81 -32.24,-6.99 -52.69,-38.86 -45.67,-71.12l89.61 -413.84c7.1,-32.26 38.88,-52.79 71.13,-45.79 32.27,6.96 52.8,38.81 45.78,71.03l-89.66 413.91z"/>
        </g>
       </g>
      </g>
      <path class="fil3" d="M3161.62 1576.5c-98.31,61.22 -225.92,157.19 -347.03,97.04 -89.31,-44.35 -196.72,-127.3 -230.85,24.95 -21.21,94.37 18.63,209.1 61.96,292.66 120.11,231.77 388.15,355.96 641.62,332.46 247.14,-22.89 520.42,-180.16 546.98,-449.41 9.56,-97.08 -15.39,-204.09 -77.14,-281.6 -144.11,-180.7 -426.62,-121.37 -595.54,-16.11z"/>
     </g>
    </g>
    <g>
     <g>
      <path class="fil5" d="M5049.35 8291.27c0,0 -212.13,-673.31 -265.9,-923.72 -53.75,-250.4 -148.61,-968.84 -101.69,-1278.24 46.92,-309.46 177.49,-1932.65 177.49,-1932.65 0,0 -312,-120.86 -553.67,-214.72 -241.64,-93.85 -288.57,-121.22 -288.57,-121.22 0,0 -422.33,1255.28 -477.1,1552.48 -54.77,297.21 -70.41,1110.6 -46.92,1478.18 23.46,367.56 0,1439.89 0,1439.89l1556.36 0z"/>
     </g>
     <g>
      <path class="fil11" d="M1965.44 8316.69c0,0 212.13,-673.32 265.94,-923.75 53.77,-250.37 105.58,-976.71 58.66,-1286.11 -46.89,-309.46 -134.49,-1924.75 -134.49,-1924.75 0,0 312.04,-120.86 553.73,-214.73 241.61,-93.83 288.57,-121.22 288.57,-121.22 0,0 422.33,1255.3 477.08,1552.48 54.73,297.21 70.37,1110.6 46.89,1478.17 -23.44,367.59 0,1439.92 0,1439.92l-1556.36 0z"/>
     </g>
     <g>
      <path class="fil11" d="M4761.84 4118.92c0,0 407.08,-136.22 485.31,379.97 57.36,378.49 270.96,2064.77 211.05,2283.67 -52.11,190.39 -158.54,326.87 -471.37,350.36 -312.86,23.46 -1853.61,-305.04 -1853.61,-305.04l100.27 -526.03c0,0 1356.89,24.34 1411.6,32.16 54.74,7.79 -59.38,-305.56 -59.38,-305.56l176.13 -1909.54z"/>
     </g>
     <g>
      <path class="fil5" d="M4001.34 7000.09c0,0 -275.71,362.23 -412.53,412.94 -288.17,106.69 -983.6,-75.46 -1222.09,-131.47 -313.85,-73.83 -563.09,-46.92 -764.03,-361.07 -193.23,-301.97 -64.96,-790.31 -49.33,-1080.29 15.64,-290.03 116.61,-1134.03 164.28,-1335.17 30.75,-130 176.67,-462.12 481.68,-339.91 185.55,74.28 206.53,1786.83 206.53,1786.83 0,0 -40.95,275.41 -63.22,423.22 -18.68,123.96 125.78,139.9 196.19,179 70.38,39.1 1462.53,445.93 1462.53,445.93z"/>
     </g>
     <g>
      <path class="fil7" d="M3217.94 6383.31c0,0 -180.53,-54.57 -320.23,-6.44 -139.74,48.06 -278.62,199.2 -278.62,199.2l552.81 178.4 46.03 -371.16z"/>
     </g>
     <g>
      <path class="fil7" d="M4511.08 6320.64c0,0 208.45,42.03 213.95,-43.25 5.5,-85.27 -219.07,-300.91 -306.06,-237.38 -86.98,63.49 -360.44,276.9 -360.44,276.9l452.54 3.73z"/>
     </g>
     <g>
      <polygon class="fil11" points="3487.99,6056.01 4079.56,4653.67 4001.34,4551.99 4196.9,4481.59 4395.74,3976.96 4017,3820.71 3487.99,5451.39 "/>
     </g>
     <g>
      <polygon class="fil5" points="3526.84,6081.4 2935.28,4679.07 3013.48,4577.4 2817.99,4506.98 2619.09,4002.36 2997.85,3846.12 3526.84,5476.84 "/>
     </g>
    </g>
   </g>
   <path class="fil12 str0" d="M1709.05 2956.43c-693.6,382.42 -1356.37,1011.95 -1560.32,1799.78 -127.29,491.72 50.14,1466.34 180.95,1735.06 311.22,639.33 663.81,1203.58 830.32,1352.93 410.48,368.11 924.79,731.23 1469.1,832.93 521,97.35 1153.73,-286.53 1575.95,-594.57 188.65,-137.66 377.13,-278.83 573.45,-405.42 187.16,-120.56 393.29,-211.19 583.2,-327.58 290.61,-178.01 715.18,-270.33 948.65,-523.49 101.9,-110.48 161.48,-309.48 63.47,-455.19 -162.75,-241.87 -408.71,109.84 -407.99,189.36 2.07,230.59 595.56,490.62 777.38,413.85 358.2,-151.17 566.47,-510.97 199.12,-1311.76"/>
   <polygon class="fil2" points="380.27,3534.4 895.92,4303.86 2124.77,3480.34 1609.13,2710.88 "/>
   <polygon class="fil1" points="1325.26,3514.83 380.27,3534.4 1609.13,2710.88 "/>
   <polygon class="fil2" points="6415.96,5092.88 6296.64,6011.97 7764.45,6202.49 7883.74,5283.41 "/>
   <polygon class="fil1" points="7139.98,5701.21 6415.96,5092.88 7883.74,5283.41 "/>
   <polygon class="fil1" points="1021.22,7143.37 92.05,7235.41 -0,6306.22 929.16,6214.18 "/>
   <path class="fil7" d="M610.62 6796.41c-18.48,-2.32 -39.52,6.88 -45.65,24.66 -3.57,10.08 -3,23.51 -12.44,28.88 -6.69,3.87 -15.11,1.11 -22.27,-1.91 -35.24,-15.42 -115.06,-141.37 -113.74,-179.7 0.19,-7.76 1.44,-16.58 7.76,-21.13 8.87,-6.27 20.72,0.06 31.43,1.19 18.64,2.04 35.84,-13.1 41.97,-30.84 6.04,-17.57 3.03,-37.16 -1.28,-55.38 -5.19,-21.21 -13.3,-42.8 -29.09,-57.81 -45.5,-42.38 -101.09,10.47 -121.23,51.92 -13.01,26.8 -18.78,56.65 -19.69,86.13 -2.85,62.81 130.59,273.59 188.76,298.29 27.19,11.6 56.49,19.12 85.97,18.84 46.25,-0.47 117.83,-28.07 99.02,-87.35 -6.71,-20.72 -22.88,-37.27 -39.81,-50.92 -14.63,-11.91 -31.09,-22.88 -49.71,-24.88z"/>
   <polygon class="fil3" points="1666.77,8687.57 926.35,8118.67 1495.23,7378.3 2235.63,7947.19 "/>
   <polygon class="fil7" points="1748.17,7863.83 1355.07,7902.73 1563.73,8005 "/>
   <polygon class="fil7" points="1569.56,8063.77 1310.4,7936.91 1337.42,8209.64 1825.54,8161.28 1798.52,7888.55 "/>
   <polygon class="fil4" points="3882.44,8922.31 3142.03,8353.45 3710.87,7613.03 4451.3,8181.93 "/>
   <path class="fil7" d="M3558.59 8282.31l120.84 -11.96c-2.82,-35.67 -0.55,-70.74 6.49,-104.84 -30.67,-5.27 -60.73,-14.17 -89.7,-27.13 -26.69,41.45 -40.86,91.35 -37.63,143.94z"/>
   <path class="fil7" d="M3681.19 8288.15l-120.86 11.99c7.13,52.2 30.84,98.31 65.1,133.54 25.92,-18.18 53.66,-32.91 82.7,-44.04 -13.6,-31.81 -22.74,-66.02 -26.94,-101.49z"/>
   <path class="fil7" d="M3788.6 8277.54l-89.64 8.87c4.34,33.85 13.08,66.56 26.2,97.24 23.52,-7.69 47.94,-13.24 72.34,-16.22l-8.89 -89.89z"/>
   <path class="fil7" d="M3786.83 8259.69l-8.93 -89.95c-24.46,1.86 -49.52,1.25 -74.11,-1.68 -6.79,32.74 -9.03,66.42 -6.57,100.53l89.62 -8.89z"/>
   <path class="fil7" d="M3799.29 8385.42c-22.49,2.82 -44.82,7.67 -66.53,14.64 19.34,39.43 45.7,75.21 78.44,105.55l-11.91 -120.2z"/>
   <path class="fil7" d="M3867.85 8151.81c-23.4,7.68 -47.61,13.07 -72.1,16.08l8.93 90 89.39 -8.85c-4.01,-33.29 -12.87,-66.18 -26.22,-97.24z"/>
   <path class="fil7" d="M3793.99 8150.07c22.43,-2.79 44.71,-7.74 66.32,-14.62 -18.87,-38.88 -44.99,-74.79 -78.2,-105.63l11.88 120.25z"/>
   <path class="fil7" d="M3776.13 8151.83l-11.94 -120.33c-26.11,36.25 -44.99,76.49 -56.14,118.99 22.54,2.43 45.42,3.01 68.08,1.34z"/>
   <path class="fil7" d="M3689.89 8147.85c10.17,-39.37 26.72,-77 49.22,-111.6 -54.02,13.35 -100.19,44.85 -132.33,87.12 26.84,11.58 54.8,19.76 83.12,24.48z"/>
   <path class="fil7" d="M3715.51 8406.13c-26.92,10.25 -52.7,23.63 -76.71,40.32 39.68,35.07 91.24,57.04 146.84,59.52 -28.82,-29.43 -52.44,-63.11 -70.13,-99.84z"/>
   <path class="fil7" d="M3817.14 8383.64l11.94 120.2c26.5,-36.64 45.1,-76.87 55.95,-118.87 -22.54,-2.49 -45.34,-2.99 -67.88,-1.33z"/>
   <path class="fil7" d="M3903.11 8387.57c-9.95,38.94 -26.29,76.65 -49.1,111.7 54.13,-13.44 100.44,-44.86 132.44,-87.13 -26.89,-11.77 -55.02,-19.83 -83.34,-24.56z"/>
   <path class="fil7" d="M3877.49 8129.27c26.86,-10.2 52.86,-23.71 77.15,-40.32 -39.88,-35.2 -91.49,-57.06 -147.06,-59.51 29.24,29.9 52.55,63.8 69.91,99.84z"/>
   <path class="fil7" d="M3806.48 8275.8l8.9 89.89c24.59,-1.91 49.24,-1.3 73.84,1.63 6.91,-33.21 9.25,-66.95 6.74,-100.47l-89.51 8.87 0.03 0.08z"/>
   <path class="fil7" d="M4034.71 8253.1l-120.72 12c2.43,34.87 0.3,70.24 -6.88,104.81 30.84,5.22 60.98,14.23 90.02,26.91 26.72,-41.23 40.87,-91.1 37.58,-143.72z"/>
   <path class="fil7" d="M3912.2 8247.25l120.75 -11.94c-7.07,-52.14 -30.73,-98.38 -65.02,-133.58 -26,18.18 -53.8,32.99 -83.04,44.07 13.71,32.47 22.88,66.65 27.3,101.44z"/>
   <polygon class="fil13" points="7503.62,54.89 6554.46,54.89 6554.46,0 7503.62,0 "/>
  </g>
 </g>
</svg>
